G04 #@! TF.GenerationSoftware,KiCad,Pcbnew,7.0.5*
G04 #@! TF.CreationDate,2026-02-06T08:35:04+09:00*
G04 #@! TF.ProjectId,keybit8,6b657962-6974-4382-9e6b-696361645f70,rev?*
G04 #@! TF.SameCoordinates,Original*
G04 #@! TF.FileFunction,Legend,Bot*
G04 #@! TF.FilePolarity,Positive*
%FSLAX46Y46*%
G04 Gerber Fmt 4.6, Leading zero omitted, Abs format (unit mm)*
G04 Created by KiCad (PCBNEW 7.0.5) date 2026-02-06 08:35:04*
%MOMM*%
%LPD*%
G01*
G04 APERTURE LIST*
%ADD10C,0.250000*%
%ADD11C,0.150000*%
G04 APERTURE END LIST*
D10*
X98559381Y-87420209D02*
X98559381Y-86220209D01*
X98559381Y-86220209D02*
X98273667Y-86220209D01*
X98273667Y-86220209D02*
X98102238Y-86277352D01*
X98102238Y-86277352D02*
X97987953Y-86391638D01*
X97987953Y-86391638D02*
X97930810Y-86505924D01*
X97930810Y-86505924D02*
X97873667Y-86734495D01*
X97873667Y-86734495D02*
X97873667Y-86905924D01*
X97873667Y-86905924D02*
X97930810Y-87134495D01*
X97930810Y-87134495D02*
X97987953Y-87248781D01*
X97987953Y-87248781D02*
X98102238Y-87363067D01*
X98102238Y-87363067D02*
X98273667Y-87420209D01*
X98273667Y-87420209D02*
X98559381Y-87420209D01*
X97359381Y-86791638D02*
X96959381Y-86791638D01*
X96787953Y-87420209D02*
X97359381Y-87420209D01*
X97359381Y-87420209D02*
X97359381Y-86220209D01*
X97359381Y-86220209D02*
X96787953Y-86220209D01*
X96330810Y-87363067D02*
X96159382Y-87420209D01*
X96159382Y-87420209D02*
X95873667Y-87420209D01*
X95873667Y-87420209D02*
X95759382Y-87363067D01*
X95759382Y-87363067D02*
X95702239Y-87305924D01*
X95702239Y-87305924D02*
X95645096Y-87191638D01*
X95645096Y-87191638D02*
X95645096Y-87077352D01*
X95645096Y-87077352D02*
X95702239Y-86963067D01*
X95702239Y-86963067D02*
X95759382Y-86905924D01*
X95759382Y-86905924D02*
X95873667Y-86848781D01*
X95873667Y-86848781D02*
X96102239Y-86791638D01*
X96102239Y-86791638D02*
X96216524Y-86734495D01*
X96216524Y-86734495D02*
X96273667Y-86677352D01*
X96273667Y-86677352D02*
X96330810Y-86563067D01*
X96330810Y-86563067D02*
X96330810Y-86448781D01*
X96330810Y-86448781D02*
X96273667Y-86334495D01*
X96273667Y-86334495D02*
X96216524Y-86277352D01*
X96216524Y-86277352D02*
X96102239Y-86220209D01*
X96102239Y-86220209D02*
X95816524Y-86220209D01*
X95816524Y-86220209D02*
X95645096Y-86277352D01*
X95130810Y-87420209D02*
X95130810Y-86220209D01*
X93930810Y-86277352D02*
X94045096Y-86220209D01*
X94045096Y-86220209D02*
X94216524Y-86220209D01*
X94216524Y-86220209D02*
X94387953Y-86277352D01*
X94387953Y-86277352D02*
X94502238Y-86391638D01*
X94502238Y-86391638D02*
X94559381Y-86505924D01*
X94559381Y-86505924D02*
X94616524Y-86734495D01*
X94616524Y-86734495D02*
X94616524Y-86905924D01*
X94616524Y-86905924D02*
X94559381Y-87134495D01*
X94559381Y-87134495D02*
X94502238Y-87248781D01*
X94502238Y-87248781D02*
X94387953Y-87363067D01*
X94387953Y-87363067D02*
X94216524Y-87420209D01*
X94216524Y-87420209D02*
X94102238Y-87420209D01*
X94102238Y-87420209D02*
X93930810Y-87363067D01*
X93930810Y-87363067D02*
X93873667Y-87305924D01*
X93873667Y-87305924D02*
X93873667Y-86905924D01*
X93873667Y-86905924D02*
X94102238Y-86905924D01*
X93359381Y-87420209D02*
X93359381Y-86220209D01*
X93359381Y-86220209D02*
X92673667Y-87420209D01*
X92673667Y-87420209D02*
X92673667Y-86220209D01*
X92102238Y-86791638D02*
X91702238Y-86791638D01*
X91530810Y-87420209D02*
X92102238Y-87420209D01*
X92102238Y-87420209D02*
X92102238Y-86220209D01*
X92102238Y-86220209D02*
X91530810Y-86220209D01*
X91016524Y-87420209D02*
X91016524Y-86220209D01*
X91016524Y-86220209D02*
X90730810Y-86220209D01*
X90730810Y-86220209D02*
X90559381Y-86277352D01*
X90559381Y-86277352D02*
X90445096Y-86391638D01*
X90445096Y-86391638D02*
X90387953Y-86505924D01*
X90387953Y-86505924D02*
X90330810Y-86734495D01*
X90330810Y-86734495D02*
X90330810Y-86905924D01*
X90330810Y-86905924D02*
X90387953Y-87134495D01*
X90387953Y-87134495D02*
X90445096Y-87248781D01*
X90445096Y-87248781D02*
X90559381Y-87363067D01*
X90559381Y-87363067D02*
X90730810Y-87420209D01*
X90730810Y-87420209D02*
X91016524Y-87420209D01*
X88902238Y-87420209D02*
X88902238Y-86220209D01*
X88330809Y-87420209D02*
X88330809Y-86220209D01*
X88330809Y-86220209D02*
X87645095Y-87420209D01*
X87645095Y-87420209D02*
X87645095Y-86220209D01*
X86159380Y-87420209D02*
X86159380Y-86220209D01*
X86159380Y-86791638D02*
X85473666Y-86791638D01*
X85473666Y-87420209D02*
X85473666Y-86220209D01*
X84902237Y-87420209D02*
X84902237Y-86220209D01*
X84330808Y-87420209D02*
X84330808Y-86220209D01*
X84330808Y-86220209D02*
X84045094Y-86220209D01*
X84045094Y-86220209D02*
X83873665Y-86277352D01*
X83873665Y-86277352D02*
X83759380Y-86391638D01*
X83759380Y-86391638D02*
X83702237Y-86505924D01*
X83702237Y-86505924D02*
X83645094Y-86734495D01*
X83645094Y-86734495D02*
X83645094Y-86905924D01*
X83645094Y-86905924D02*
X83702237Y-87134495D01*
X83702237Y-87134495D02*
X83759380Y-87248781D01*
X83759380Y-87248781D02*
X83873665Y-87363067D01*
X83873665Y-87363067D02*
X84045094Y-87420209D01*
X84045094Y-87420209D02*
X84330808Y-87420209D01*
X83187951Y-87077352D02*
X82616523Y-87077352D01*
X83302237Y-87420209D02*
X82902237Y-86220209D01*
X82902237Y-86220209D02*
X82502237Y-87420209D01*
X80845094Y-86220209D02*
X80845094Y-87077352D01*
X80845094Y-87077352D02*
X80902237Y-87248781D01*
X80902237Y-87248781D02*
X81016523Y-87363067D01*
X81016523Y-87363067D02*
X81187951Y-87420209D01*
X81187951Y-87420209D02*
X81302237Y-87420209D01*
X80330808Y-87077352D02*
X79759380Y-87077352D01*
X80445094Y-87420209D02*
X80045094Y-86220209D01*
X80045094Y-86220209D02*
X79645094Y-87420209D01*
X79245094Y-87420209D02*
X79245094Y-86220209D01*
X79245094Y-86220209D02*
X78787951Y-86220209D01*
X78787951Y-86220209D02*
X78673666Y-86277352D01*
X78673666Y-86277352D02*
X78616523Y-86334495D01*
X78616523Y-86334495D02*
X78559380Y-86448781D01*
X78559380Y-86448781D02*
X78559380Y-86620209D01*
X78559380Y-86620209D02*
X78616523Y-86734495D01*
X78616523Y-86734495D02*
X78673666Y-86791638D01*
X78673666Y-86791638D02*
X78787951Y-86848781D01*
X78787951Y-86848781D02*
X79245094Y-86848781D01*
X78102237Y-87077352D02*
X77530809Y-87077352D01*
X78216523Y-87420209D02*
X77816523Y-86220209D01*
X77816523Y-86220209D02*
X77416523Y-87420209D01*
X77016523Y-87420209D02*
X77016523Y-86220209D01*
X77016523Y-86220209D02*
X76330809Y-87420209D01*
X76330809Y-87420209D02*
X76330809Y-86220209D01*
D11*
X149561473Y-72069886D02*
X148990045Y-72069886D01*
X149275759Y-73069886D02*
X149275759Y-72069886D01*
X148656711Y-73069886D02*
X148656711Y-72069886D01*
X148656711Y-72069886D02*
X148275759Y-72069886D01*
X148275759Y-72069886D02*
X148180521Y-72117505D01*
X148180521Y-72117505D02*
X148132902Y-72165124D01*
X148132902Y-72165124D02*
X148085283Y-72260362D01*
X148085283Y-72260362D02*
X148085283Y-72403219D01*
X148085283Y-72403219D02*
X148132902Y-72498457D01*
X148132902Y-72498457D02*
X148180521Y-72546076D01*
X148180521Y-72546076D02*
X148275759Y-72593695D01*
X148275759Y-72593695D02*
X148656711Y-72593695D01*
X147132902Y-73069886D02*
X147704330Y-73069886D01*
X147418616Y-73069886D02*
X147418616Y-72069886D01*
X147418616Y-72069886D02*
X147513854Y-72212743D01*
X147513854Y-72212743D02*
X147609092Y-72307981D01*
X147609092Y-72307981D02*
X147704330Y-72355600D01*
X149071473Y-76017505D02*
X149166711Y-75969886D01*
X149166711Y-75969886D02*
X149309568Y-75969886D01*
X149309568Y-75969886D02*
X149452425Y-76017505D01*
X149452425Y-76017505D02*
X149547663Y-76112743D01*
X149547663Y-76112743D02*
X149595282Y-76207981D01*
X149595282Y-76207981D02*
X149642901Y-76398457D01*
X149642901Y-76398457D02*
X149642901Y-76541314D01*
X149642901Y-76541314D02*
X149595282Y-76731790D01*
X149595282Y-76731790D02*
X149547663Y-76827028D01*
X149547663Y-76827028D02*
X149452425Y-76922267D01*
X149452425Y-76922267D02*
X149309568Y-76969886D01*
X149309568Y-76969886D02*
X149214330Y-76969886D01*
X149214330Y-76969886D02*
X149071473Y-76922267D01*
X149071473Y-76922267D02*
X149023854Y-76874647D01*
X149023854Y-76874647D02*
X149023854Y-76541314D01*
X149023854Y-76541314D02*
X149214330Y-76541314D01*
X148595282Y-76969886D02*
X148595282Y-75969886D01*
X148595282Y-75969886D02*
X148023854Y-76969886D01*
X148023854Y-76969886D02*
X148023854Y-75969886D01*
X147547663Y-76969886D02*
X147547663Y-75969886D01*
X147547663Y-75969886D02*
X147309568Y-75969886D01*
X147309568Y-75969886D02*
X147166711Y-76017505D01*
X147166711Y-76017505D02*
X147071473Y-76112743D01*
X147071473Y-76112743D02*
X147023854Y-76207981D01*
X147023854Y-76207981D02*
X146976235Y-76398457D01*
X146976235Y-76398457D02*
X146976235Y-76541314D01*
X146976235Y-76541314D02*
X147023854Y-76731790D01*
X147023854Y-76731790D02*
X147071473Y-76827028D01*
X147071473Y-76827028D02*
X147166711Y-76922267D01*
X147166711Y-76922267D02*
X147309568Y-76969886D01*
X147309568Y-76969886D02*
X147547663Y-76969886D01*
X93532901Y-54672267D02*
X93390044Y-54719886D01*
X93390044Y-54719886D02*
X93151949Y-54719886D01*
X93151949Y-54719886D02*
X93056711Y-54672267D01*
X93056711Y-54672267D02*
X93009092Y-54624647D01*
X93009092Y-54624647D02*
X92961473Y-54529409D01*
X92961473Y-54529409D02*
X92961473Y-54434171D01*
X92961473Y-54434171D02*
X93009092Y-54338933D01*
X93009092Y-54338933D02*
X93056711Y-54291314D01*
X93056711Y-54291314D02*
X93151949Y-54243695D01*
X93151949Y-54243695D02*
X93342425Y-54196076D01*
X93342425Y-54196076D02*
X93437663Y-54148457D01*
X93437663Y-54148457D02*
X93485282Y-54100838D01*
X93485282Y-54100838D02*
X93532901Y-54005600D01*
X93532901Y-54005600D02*
X93532901Y-53910362D01*
X93532901Y-53910362D02*
X93485282Y-53815124D01*
X93485282Y-53815124D02*
X93437663Y-53767505D01*
X93437663Y-53767505D02*
X93342425Y-53719886D01*
X93342425Y-53719886D02*
X93104330Y-53719886D01*
X93104330Y-53719886D02*
X92961473Y-53767505D01*
X92628139Y-53719886D02*
X92390044Y-54719886D01*
X92390044Y-54719886D02*
X92199568Y-54005600D01*
X92199568Y-54005600D02*
X92009092Y-54719886D01*
X92009092Y-54719886D02*
X91770997Y-53719886D01*
X91485282Y-53719886D02*
X90818616Y-53719886D01*
X90818616Y-53719886D02*
X91247187Y-54719886D01*
X148884807Y-59674647D02*
X148932426Y-59722267D01*
X148932426Y-59722267D02*
X149075283Y-59769886D01*
X149075283Y-59769886D02*
X149170521Y-59769886D01*
X149170521Y-59769886D02*
X149313378Y-59722267D01*
X149313378Y-59722267D02*
X149408616Y-59627028D01*
X149408616Y-59627028D02*
X149456235Y-59531790D01*
X149456235Y-59531790D02*
X149503854Y-59341314D01*
X149503854Y-59341314D02*
X149503854Y-59198457D01*
X149503854Y-59198457D02*
X149456235Y-59007981D01*
X149456235Y-59007981D02*
X149408616Y-58912743D01*
X149408616Y-58912743D02*
X149313378Y-58817505D01*
X149313378Y-58817505D02*
X149170521Y-58769886D01*
X149170521Y-58769886D02*
X149075283Y-58769886D01*
X149075283Y-58769886D02*
X148932426Y-58817505D01*
X148932426Y-58817505D02*
X148884807Y-58865124D01*
X148265759Y-58769886D02*
X148075283Y-58769886D01*
X148075283Y-58769886D02*
X147980045Y-58817505D01*
X147980045Y-58817505D02*
X147884807Y-58912743D01*
X147884807Y-58912743D02*
X147837188Y-59103219D01*
X147837188Y-59103219D02*
X147837188Y-59436552D01*
X147837188Y-59436552D02*
X147884807Y-59627028D01*
X147884807Y-59627028D02*
X147980045Y-59722267D01*
X147980045Y-59722267D02*
X148075283Y-59769886D01*
X148075283Y-59769886D02*
X148265759Y-59769886D01*
X148265759Y-59769886D02*
X148360997Y-59722267D01*
X148360997Y-59722267D02*
X148456235Y-59627028D01*
X148456235Y-59627028D02*
X148503854Y-59436552D01*
X148503854Y-59436552D02*
X148503854Y-59103219D01*
X148503854Y-59103219D02*
X148456235Y-58912743D01*
X148456235Y-58912743D02*
X148360997Y-58817505D01*
X148360997Y-58817505D02*
X148265759Y-58769886D01*
X146932426Y-59769886D02*
X147408616Y-59769886D01*
X147408616Y-59769886D02*
X147408616Y-58769886D01*
X146408616Y-58769886D02*
X146313378Y-58769886D01*
X146313378Y-58769886D02*
X146218140Y-58817505D01*
X146218140Y-58817505D02*
X146170521Y-58865124D01*
X146170521Y-58865124D02*
X146122902Y-58960362D01*
X146122902Y-58960362D02*
X146075283Y-59150838D01*
X146075283Y-59150838D02*
X146075283Y-59388933D01*
X146075283Y-59388933D02*
X146122902Y-59579409D01*
X146122902Y-59579409D02*
X146170521Y-59674647D01*
X146170521Y-59674647D02*
X146218140Y-59722267D01*
X146218140Y-59722267D02*
X146313378Y-59769886D01*
X146313378Y-59769886D02*
X146408616Y-59769886D01*
X146408616Y-59769886D02*
X146503854Y-59722267D01*
X146503854Y-59722267D02*
X146551473Y-59674647D01*
X146551473Y-59674647D02*
X146599092Y-59579409D01*
X146599092Y-59579409D02*
X146646711Y-59388933D01*
X146646711Y-59388933D02*
X146646711Y-59150838D01*
X146646711Y-59150838D02*
X146599092Y-58960362D01*
X146599092Y-58960362D02*
X146551473Y-58865124D01*
X146551473Y-58865124D02*
X146503854Y-58817505D01*
X146503854Y-58817505D02*
X146408616Y-58769886D01*
X148951473Y-55004886D02*
X148380045Y-55004886D01*
X148665759Y-56004886D02*
X148665759Y-55004886D01*
X148046711Y-56004886D02*
X148046711Y-55004886D01*
X148046711Y-55004886D02*
X147665759Y-55004886D01*
X147665759Y-55004886D02*
X147570521Y-55052505D01*
X147570521Y-55052505D02*
X147522902Y-55100124D01*
X147522902Y-55100124D02*
X147475283Y-55195362D01*
X147475283Y-55195362D02*
X147475283Y-55338219D01*
X147475283Y-55338219D02*
X147522902Y-55433457D01*
X147522902Y-55433457D02*
X147570521Y-55481076D01*
X147570521Y-55481076D02*
X147665759Y-55528695D01*
X147665759Y-55528695D02*
X148046711Y-55528695D01*
X147094330Y-55100124D02*
X147046711Y-55052505D01*
X147046711Y-55052505D02*
X146951473Y-55004886D01*
X146951473Y-55004886D02*
X146713378Y-55004886D01*
X146713378Y-55004886D02*
X146618140Y-55052505D01*
X146618140Y-55052505D02*
X146570521Y-55100124D01*
X146570521Y-55100124D02*
X146522902Y-55195362D01*
X146522902Y-55195362D02*
X146522902Y-55290600D01*
X146522902Y-55290600D02*
X146570521Y-55433457D01*
X146570521Y-55433457D02*
X147141949Y-56004886D01*
X147141949Y-56004886D02*
X146522902Y-56004886D01*
X141085282Y-87322267D02*
X140942425Y-87369886D01*
X140942425Y-87369886D02*
X140704330Y-87369886D01*
X140704330Y-87369886D02*
X140609092Y-87322267D01*
X140609092Y-87322267D02*
X140561473Y-87274647D01*
X140561473Y-87274647D02*
X140513854Y-87179409D01*
X140513854Y-87179409D02*
X140513854Y-87084171D01*
X140513854Y-87084171D02*
X140561473Y-86988933D01*
X140561473Y-86988933D02*
X140609092Y-86941314D01*
X140609092Y-86941314D02*
X140704330Y-86893695D01*
X140704330Y-86893695D02*
X140894806Y-86846076D01*
X140894806Y-86846076D02*
X140990044Y-86798457D01*
X140990044Y-86798457D02*
X141037663Y-86750838D01*
X141037663Y-86750838D02*
X141085282Y-86655600D01*
X141085282Y-86655600D02*
X141085282Y-86560362D01*
X141085282Y-86560362D02*
X141037663Y-86465124D01*
X141037663Y-86465124D02*
X140990044Y-86417505D01*
X140990044Y-86417505D02*
X140894806Y-86369886D01*
X140894806Y-86369886D02*
X140656711Y-86369886D01*
X140656711Y-86369886D02*
X140513854Y-86417505D01*
X140085282Y-87369886D02*
X140085282Y-86369886D01*
X140085282Y-86369886D02*
X139704330Y-86369886D01*
X139704330Y-86369886D02*
X139609092Y-86417505D01*
X139609092Y-86417505D02*
X139561473Y-86465124D01*
X139561473Y-86465124D02*
X139513854Y-86560362D01*
X139513854Y-86560362D02*
X139513854Y-86703219D01*
X139513854Y-86703219D02*
X139561473Y-86798457D01*
X139561473Y-86798457D02*
X139609092Y-86846076D01*
X139609092Y-86846076D02*
X139704330Y-86893695D01*
X139704330Y-86893695D02*
X140085282Y-86893695D01*
X139085282Y-87369886D02*
X139085282Y-86369886D01*
X138513854Y-87369886D02*
X138942425Y-86798457D01*
X138513854Y-86369886D02*
X139085282Y-86941314D01*
X138161473Y-84469886D02*
X137590045Y-84469886D01*
X137875759Y-85469886D02*
X137875759Y-84469886D01*
X137256711Y-85469886D02*
X137256711Y-84469886D01*
X137256711Y-84469886D02*
X136875759Y-84469886D01*
X136875759Y-84469886D02*
X136780521Y-84517505D01*
X136780521Y-84517505D02*
X136732902Y-84565124D01*
X136732902Y-84565124D02*
X136685283Y-84660362D01*
X136685283Y-84660362D02*
X136685283Y-84803219D01*
X136685283Y-84803219D02*
X136732902Y-84898457D01*
X136732902Y-84898457D02*
X136780521Y-84946076D01*
X136780521Y-84946076D02*
X136875759Y-84993695D01*
X136875759Y-84993695D02*
X137256711Y-84993695D01*
X135780521Y-84469886D02*
X136256711Y-84469886D01*
X136256711Y-84469886D02*
X136304330Y-84946076D01*
X136304330Y-84946076D02*
X136256711Y-84898457D01*
X136256711Y-84898457D02*
X136161473Y-84850838D01*
X136161473Y-84850838D02*
X135923378Y-84850838D01*
X135923378Y-84850838D02*
X135828140Y-84898457D01*
X135828140Y-84898457D02*
X135780521Y-84946076D01*
X135780521Y-84946076D02*
X135732902Y-85041314D01*
X135732902Y-85041314D02*
X135732902Y-85279409D01*
X135732902Y-85279409D02*
X135780521Y-85374647D01*
X135780521Y-85374647D02*
X135828140Y-85422267D01*
X135828140Y-85422267D02*
X135923378Y-85469886D01*
X135923378Y-85469886D02*
X136161473Y-85469886D01*
X136161473Y-85469886D02*
X136256711Y-85422267D01*
X136256711Y-85422267D02*
X136304330Y-85374647D01*
X55432901Y-54672267D02*
X55290044Y-54719886D01*
X55290044Y-54719886D02*
X55051949Y-54719886D01*
X55051949Y-54719886D02*
X54956711Y-54672267D01*
X54956711Y-54672267D02*
X54909092Y-54624647D01*
X54909092Y-54624647D02*
X54861473Y-54529409D01*
X54861473Y-54529409D02*
X54861473Y-54434171D01*
X54861473Y-54434171D02*
X54909092Y-54338933D01*
X54909092Y-54338933D02*
X54956711Y-54291314D01*
X54956711Y-54291314D02*
X55051949Y-54243695D01*
X55051949Y-54243695D02*
X55242425Y-54196076D01*
X55242425Y-54196076D02*
X55337663Y-54148457D01*
X55337663Y-54148457D02*
X55385282Y-54100838D01*
X55385282Y-54100838D02*
X55432901Y-54005600D01*
X55432901Y-54005600D02*
X55432901Y-53910362D01*
X55432901Y-53910362D02*
X55385282Y-53815124D01*
X55385282Y-53815124D02*
X55337663Y-53767505D01*
X55337663Y-53767505D02*
X55242425Y-53719886D01*
X55242425Y-53719886D02*
X55004330Y-53719886D01*
X55004330Y-53719886D02*
X54861473Y-53767505D01*
X54528139Y-53719886D02*
X54290044Y-54719886D01*
X54290044Y-54719886D02*
X54099568Y-54005600D01*
X54099568Y-54005600D02*
X53909092Y-54719886D01*
X53909092Y-54719886D02*
X53670997Y-53719886D01*
X53385282Y-53719886D02*
X52766235Y-53719886D01*
X52766235Y-53719886D02*
X53099568Y-54100838D01*
X53099568Y-54100838D02*
X52956711Y-54100838D01*
X52956711Y-54100838D02*
X52861473Y-54148457D01*
X52861473Y-54148457D02*
X52813854Y-54196076D01*
X52813854Y-54196076D02*
X52766235Y-54291314D01*
X52766235Y-54291314D02*
X52766235Y-54529409D01*
X52766235Y-54529409D02*
X52813854Y-54624647D01*
X52813854Y-54624647D02*
X52861473Y-54672267D01*
X52861473Y-54672267D02*
X52956711Y-54719886D01*
X52956711Y-54719886D02*
X53242425Y-54719886D01*
X53242425Y-54719886D02*
X53337663Y-54672267D01*
X53337663Y-54672267D02*
X53385282Y-54624647D01*
X103361473Y-55069886D02*
X103694806Y-54593695D01*
X103932901Y-55069886D02*
X103932901Y-54069886D01*
X103932901Y-54069886D02*
X103551949Y-54069886D01*
X103551949Y-54069886D02*
X103456711Y-54117505D01*
X103456711Y-54117505D02*
X103409092Y-54165124D01*
X103409092Y-54165124D02*
X103361473Y-54260362D01*
X103361473Y-54260362D02*
X103361473Y-54403219D01*
X103361473Y-54403219D02*
X103409092Y-54498457D01*
X103409092Y-54498457D02*
X103456711Y-54546076D01*
X103456711Y-54546076D02*
X103551949Y-54593695D01*
X103551949Y-54593695D02*
X103932901Y-54593695D01*
X102742425Y-54069886D02*
X102551949Y-54069886D01*
X102551949Y-54069886D02*
X102456711Y-54117505D01*
X102456711Y-54117505D02*
X102361473Y-54212743D01*
X102361473Y-54212743D02*
X102313854Y-54403219D01*
X102313854Y-54403219D02*
X102313854Y-54736552D01*
X102313854Y-54736552D02*
X102361473Y-54927028D01*
X102361473Y-54927028D02*
X102456711Y-55022267D01*
X102456711Y-55022267D02*
X102551949Y-55069886D01*
X102551949Y-55069886D02*
X102742425Y-55069886D01*
X102742425Y-55069886D02*
X102837663Y-55022267D01*
X102837663Y-55022267D02*
X102932901Y-54927028D01*
X102932901Y-54927028D02*
X102980520Y-54736552D01*
X102980520Y-54736552D02*
X102980520Y-54403219D01*
X102980520Y-54403219D02*
X102932901Y-54212743D01*
X102932901Y-54212743D02*
X102837663Y-54117505D01*
X102837663Y-54117505D02*
X102742425Y-54069886D01*
X101980520Y-54069886D02*
X101742425Y-55069886D01*
X101742425Y-55069886D02*
X101551949Y-54355600D01*
X101551949Y-54355600D02*
X101361473Y-55069886D01*
X101361473Y-55069886D02*
X101123378Y-54069886D01*
X100551949Y-54069886D02*
X100456711Y-54069886D01*
X100456711Y-54069886D02*
X100361473Y-54117505D01*
X100361473Y-54117505D02*
X100313854Y-54165124D01*
X100313854Y-54165124D02*
X100266235Y-54260362D01*
X100266235Y-54260362D02*
X100218616Y-54450838D01*
X100218616Y-54450838D02*
X100218616Y-54688933D01*
X100218616Y-54688933D02*
X100266235Y-54879409D01*
X100266235Y-54879409D02*
X100313854Y-54974647D01*
X100313854Y-54974647D02*
X100361473Y-55022267D01*
X100361473Y-55022267D02*
X100456711Y-55069886D01*
X100456711Y-55069886D02*
X100551949Y-55069886D01*
X100551949Y-55069886D02*
X100647187Y-55022267D01*
X100647187Y-55022267D02*
X100694806Y-54974647D01*
X100694806Y-54974647D02*
X100742425Y-54879409D01*
X100742425Y-54879409D02*
X100790044Y-54688933D01*
X100790044Y-54688933D02*
X100790044Y-54450838D01*
X100790044Y-54450838D02*
X100742425Y-54260362D01*
X100742425Y-54260362D02*
X100694806Y-54165124D01*
X100694806Y-54165124D02*
X100647187Y-54117505D01*
X100647187Y-54117505D02*
X100551949Y-54069886D01*
X103361473Y-50369886D02*
X102790045Y-50369886D01*
X103075759Y-51369886D02*
X103075759Y-50369886D01*
X102456711Y-51369886D02*
X102456711Y-50369886D01*
X102456711Y-50369886D02*
X102075759Y-50369886D01*
X102075759Y-50369886D02*
X101980521Y-50417505D01*
X101980521Y-50417505D02*
X101932902Y-50465124D01*
X101932902Y-50465124D02*
X101885283Y-50560362D01*
X101885283Y-50560362D02*
X101885283Y-50703219D01*
X101885283Y-50703219D02*
X101932902Y-50798457D01*
X101932902Y-50798457D02*
X101980521Y-50846076D01*
X101980521Y-50846076D02*
X102075759Y-50893695D01*
X102075759Y-50893695D02*
X102456711Y-50893695D01*
X101551949Y-50369886D02*
X100932902Y-50369886D01*
X100932902Y-50369886D02*
X101266235Y-50750838D01*
X101266235Y-50750838D02*
X101123378Y-50750838D01*
X101123378Y-50750838D02*
X101028140Y-50798457D01*
X101028140Y-50798457D02*
X100980521Y-50846076D01*
X100980521Y-50846076D02*
X100932902Y-50941314D01*
X100932902Y-50941314D02*
X100932902Y-51179409D01*
X100932902Y-51179409D02*
X100980521Y-51274647D01*
X100980521Y-51274647D02*
X101028140Y-51322267D01*
X101028140Y-51322267D02*
X101123378Y-51369886D01*
X101123378Y-51369886D02*
X101409092Y-51369886D01*
X101409092Y-51369886D02*
X101504330Y-51322267D01*
X101504330Y-51322267D02*
X101551949Y-51274647D01*
X137244749Y-74153161D02*
X137720940Y-74419828D01*
X137244749Y-74610304D02*
X138244749Y-74610304D01*
X138244749Y-74610304D02*
X138244749Y-74305542D01*
X138244749Y-74305542D02*
X138197130Y-74229352D01*
X138197130Y-74229352D02*
X138149511Y-74191257D01*
X138149511Y-74191257D02*
X138054273Y-74153161D01*
X138054273Y-74153161D02*
X137911416Y-74153161D01*
X137911416Y-74153161D02*
X137816178Y-74191257D01*
X137816178Y-74191257D02*
X137768559Y-74229352D01*
X137768559Y-74229352D02*
X137720940Y-74305542D01*
X137720940Y-74305542D02*
X137720940Y-74610304D01*
X137292369Y-73848400D02*
X137244749Y-73734114D01*
X137244749Y-73734114D02*
X137244749Y-73543638D01*
X137244749Y-73543638D02*
X137292369Y-73467447D01*
X137292369Y-73467447D02*
X137339988Y-73429352D01*
X137339988Y-73429352D02*
X137435226Y-73391257D01*
X137435226Y-73391257D02*
X137530464Y-73391257D01*
X137530464Y-73391257D02*
X137625702Y-73429352D01*
X137625702Y-73429352D02*
X137673321Y-73467447D01*
X137673321Y-73467447D02*
X137720940Y-73543638D01*
X137720940Y-73543638D02*
X137768559Y-73696019D01*
X137768559Y-73696019D02*
X137816178Y-73772209D01*
X137816178Y-73772209D02*
X137863797Y-73810304D01*
X137863797Y-73810304D02*
X137959035Y-73848400D01*
X137959035Y-73848400D02*
X138054273Y-73848400D01*
X138054273Y-73848400D02*
X138149511Y-73810304D01*
X138149511Y-73810304D02*
X138197130Y-73772209D01*
X138197130Y-73772209D02*
X138244749Y-73696019D01*
X138244749Y-73696019D02*
X138244749Y-73505542D01*
X138244749Y-73505542D02*
X138197130Y-73391257D01*
X138244749Y-73162685D02*
X138244749Y-72705542D01*
X137244749Y-72934114D02*
X138244749Y-72934114D01*
X127144749Y-74910305D02*
X127144749Y-75291257D01*
X127144749Y-75291257D02*
X128144749Y-75291257D01*
X127668559Y-74643638D02*
X127668559Y-74376972D01*
X127144749Y-74262686D02*
X127144749Y-74643638D01*
X127144749Y-74643638D02*
X128144749Y-74643638D01*
X128144749Y-74643638D02*
X128144749Y-74262686D01*
X127144749Y-73919828D02*
X128144749Y-73919828D01*
X128144749Y-73919828D02*
X128144749Y-73729352D01*
X128144749Y-73729352D02*
X128097130Y-73615066D01*
X128097130Y-73615066D02*
X128001892Y-73538876D01*
X128001892Y-73538876D02*
X127906654Y-73500781D01*
X127906654Y-73500781D02*
X127716178Y-73462685D01*
X127716178Y-73462685D02*
X127573321Y-73462685D01*
X127573321Y-73462685D02*
X127382845Y-73500781D01*
X127382845Y-73500781D02*
X127287607Y-73538876D01*
X127287607Y-73538876D02*
X127192369Y-73615066D01*
X127192369Y-73615066D02*
X127144749Y-73729352D01*
X127144749Y-73729352D02*
X127144749Y-73919828D01*
X127716178Y-73005543D02*
X127763797Y-73081733D01*
X127763797Y-73081733D02*
X127811416Y-73119828D01*
X127811416Y-73119828D02*
X127906654Y-73157924D01*
X127906654Y-73157924D02*
X127954273Y-73157924D01*
X127954273Y-73157924D02*
X128049511Y-73119828D01*
X128049511Y-73119828D02*
X128097130Y-73081733D01*
X128097130Y-73081733D02*
X128144749Y-73005543D01*
X128144749Y-73005543D02*
X128144749Y-72853162D01*
X128144749Y-72853162D02*
X128097130Y-72776971D01*
X128097130Y-72776971D02*
X128049511Y-72738876D01*
X128049511Y-72738876D02*
X127954273Y-72700781D01*
X127954273Y-72700781D02*
X127906654Y-72700781D01*
X127906654Y-72700781D02*
X127811416Y-72738876D01*
X127811416Y-72738876D02*
X127763797Y-72776971D01*
X127763797Y-72776971D02*
X127716178Y-72853162D01*
X127716178Y-72853162D02*
X127716178Y-73005543D01*
X127716178Y-73005543D02*
X127668559Y-73081733D01*
X127668559Y-73081733D02*
X127620940Y-73119828D01*
X127620940Y-73119828D02*
X127525702Y-73157924D01*
X127525702Y-73157924D02*
X127335226Y-73157924D01*
X127335226Y-73157924D02*
X127239988Y-73119828D01*
X127239988Y-73119828D02*
X127192369Y-73081733D01*
X127192369Y-73081733D02*
X127144749Y-73005543D01*
X127144749Y-73005543D02*
X127144749Y-72853162D01*
X127144749Y-72853162D02*
X127192369Y-72776971D01*
X127192369Y-72776971D02*
X127239988Y-72738876D01*
X127239988Y-72738876D02*
X127335226Y-72700781D01*
X127335226Y-72700781D02*
X127525702Y-72700781D01*
X127525702Y-72700781D02*
X127620940Y-72738876D01*
X127620940Y-72738876D02*
X127668559Y-72776971D01*
X127668559Y-72776971D02*
X127716178Y-72853162D01*
X124739988Y-54791256D02*
X124692369Y-54829352D01*
X124692369Y-54829352D02*
X124644749Y-54943637D01*
X124644749Y-54943637D02*
X124644749Y-55019828D01*
X124644749Y-55019828D02*
X124692369Y-55134114D01*
X124692369Y-55134114D02*
X124787607Y-55210304D01*
X124787607Y-55210304D02*
X124882845Y-55248399D01*
X124882845Y-55248399D02*
X125073321Y-55286495D01*
X125073321Y-55286495D02*
X125216178Y-55286495D01*
X125216178Y-55286495D02*
X125406654Y-55248399D01*
X125406654Y-55248399D02*
X125501892Y-55210304D01*
X125501892Y-55210304D02*
X125597130Y-55134114D01*
X125597130Y-55134114D02*
X125644749Y-55019828D01*
X125644749Y-55019828D02*
X125644749Y-54943637D01*
X125644749Y-54943637D02*
X125597130Y-54829352D01*
X125597130Y-54829352D02*
X125549511Y-54791256D01*
X125644749Y-54296018D02*
X125644749Y-54143637D01*
X125644749Y-54143637D02*
X125597130Y-54067447D01*
X125597130Y-54067447D02*
X125501892Y-53991256D01*
X125501892Y-53991256D02*
X125311416Y-53953161D01*
X125311416Y-53953161D02*
X124978083Y-53953161D01*
X124978083Y-53953161D02*
X124787607Y-53991256D01*
X124787607Y-53991256D02*
X124692369Y-54067447D01*
X124692369Y-54067447D02*
X124644749Y-54143637D01*
X124644749Y-54143637D02*
X124644749Y-54296018D01*
X124644749Y-54296018D02*
X124692369Y-54372209D01*
X124692369Y-54372209D02*
X124787607Y-54448399D01*
X124787607Y-54448399D02*
X124978083Y-54486495D01*
X124978083Y-54486495D02*
X125311416Y-54486495D01*
X125311416Y-54486495D02*
X125501892Y-54448399D01*
X125501892Y-54448399D02*
X125597130Y-54372209D01*
X125597130Y-54372209D02*
X125644749Y-54296018D01*
X124644749Y-53229352D02*
X124644749Y-53610304D01*
X124644749Y-53610304D02*
X125644749Y-53610304D01*
X124644749Y-52543638D02*
X124644749Y-53000781D01*
X124644749Y-52772209D02*
X125644749Y-52772209D01*
X125644749Y-52772209D02*
X125501892Y-52848400D01*
X125501892Y-52848400D02*
X125406654Y-52924590D01*
X125406654Y-52924590D02*
X125359035Y-53000781D01*
X123944749Y-74910305D02*
X123944749Y-75291257D01*
X123944749Y-75291257D02*
X124944749Y-75291257D01*
X124468559Y-74643638D02*
X124468559Y-74376972D01*
X123944749Y-74262686D02*
X123944749Y-74643638D01*
X123944749Y-74643638D02*
X124944749Y-74643638D01*
X124944749Y-74643638D02*
X124944749Y-74262686D01*
X123944749Y-73919828D02*
X124944749Y-73919828D01*
X124944749Y-73919828D02*
X124944749Y-73729352D01*
X124944749Y-73729352D02*
X124897130Y-73615066D01*
X124897130Y-73615066D02*
X124801892Y-73538876D01*
X124801892Y-73538876D02*
X124706654Y-73500781D01*
X124706654Y-73500781D02*
X124516178Y-73462685D01*
X124516178Y-73462685D02*
X124373321Y-73462685D01*
X124373321Y-73462685D02*
X124182845Y-73500781D01*
X124182845Y-73500781D02*
X124087607Y-73538876D01*
X124087607Y-73538876D02*
X123992369Y-73615066D01*
X123992369Y-73615066D02*
X123944749Y-73729352D01*
X123944749Y-73729352D02*
X123944749Y-73919828D01*
X124944749Y-73196019D02*
X124944749Y-72662685D01*
X124944749Y-72662685D02*
X123944749Y-73005543D01*
X129644749Y-75224590D02*
X130120940Y-75491257D01*
X129644749Y-75681733D02*
X130644749Y-75681733D01*
X130644749Y-75681733D02*
X130644749Y-75376971D01*
X130644749Y-75376971D02*
X130597130Y-75300781D01*
X130597130Y-75300781D02*
X130549511Y-75262686D01*
X130549511Y-75262686D02*
X130454273Y-75224590D01*
X130454273Y-75224590D02*
X130311416Y-75224590D01*
X130311416Y-75224590D02*
X130216178Y-75262686D01*
X130216178Y-75262686D02*
X130168559Y-75300781D01*
X130168559Y-75300781D02*
X130120940Y-75376971D01*
X130120940Y-75376971D02*
X130120940Y-75681733D01*
X130644749Y-74729352D02*
X130644749Y-74576971D01*
X130644749Y-74576971D02*
X130597130Y-74500781D01*
X130597130Y-74500781D02*
X130501892Y-74424590D01*
X130501892Y-74424590D02*
X130311416Y-74386495D01*
X130311416Y-74386495D02*
X129978083Y-74386495D01*
X129978083Y-74386495D02*
X129787607Y-74424590D01*
X129787607Y-74424590D02*
X129692369Y-74500781D01*
X129692369Y-74500781D02*
X129644749Y-74576971D01*
X129644749Y-74576971D02*
X129644749Y-74729352D01*
X129644749Y-74729352D02*
X129692369Y-74805543D01*
X129692369Y-74805543D02*
X129787607Y-74881733D01*
X129787607Y-74881733D02*
X129978083Y-74919829D01*
X129978083Y-74919829D02*
X130311416Y-74919829D01*
X130311416Y-74919829D02*
X130501892Y-74881733D01*
X130501892Y-74881733D02*
X130597130Y-74805543D01*
X130597130Y-74805543D02*
X130644749Y-74729352D01*
X130644749Y-74119829D02*
X129644749Y-73929353D01*
X129644749Y-73929353D02*
X130359035Y-73776972D01*
X130359035Y-73776972D02*
X129644749Y-73624591D01*
X129644749Y-73624591D02*
X130644749Y-73434115D01*
X129644749Y-72710305D02*
X129644749Y-73167448D01*
X129644749Y-72938876D02*
X130644749Y-72938876D01*
X130644749Y-72938876D02*
X130501892Y-73015067D01*
X130501892Y-73015067D02*
X130406654Y-73091257D01*
X130406654Y-73091257D02*
X130359035Y-73167448D01*
X132244749Y-75224590D02*
X132720940Y-75491257D01*
X132244749Y-75681733D02*
X133244749Y-75681733D01*
X133244749Y-75681733D02*
X133244749Y-75376971D01*
X133244749Y-75376971D02*
X133197130Y-75300781D01*
X133197130Y-75300781D02*
X133149511Y-75262686D01*
X133149511Y-75262686D02*
X133054273Y-75224590D01*
X133054273Y-75224590D02*
X132911416Y-75224590D01*
X132911416Y-75224590D02*
X132816178Y-75262686D01*
X132816178Y-75262686D02*
X132768559Y-75300781D01*
X132768559Y-75300781D02*
X132720940Y-75376971D01*
X132720940Y-75376971D02*
X132720940Y-75681733D01*
X133244749Y-74729352D02*
X133244749Y-74576971D01*
X133244749Y-74576971D02*
X133197130Y-74500781D01*
X133197130Y-74500781D02*
X133101892Y-74424590D01*
X133101892Y-74424590D02*
X132911416Y-74386495D01*
X132911416Y-74386495D02*
X132578083Y-74386495D01*
X132578083Y-74386495D02*
X132387607Y-74424590D01*
X132387607Y-74424590D02*
X132292369Y-74500781D01*
X132292369Y-74500781D02*
X132244749Y-74576971D01*
X132244749Y-74576971D02*
X132244749Y-74729352D01*
X132244749Y-74729352D02*
X132292369Y-74805543D01*
X132292369Y-74805543D02*
X132387607Y-74881733D01*
X132387607Y-74881733D02*
X132578083Y-74919829D01*
X132578083Y-74919829D02*
X132911416Y-74919829D01*
X132911416Y-74919829D02*
X133101892Y-74881733D01*
X133101892Y-74881733D02*
X133197130Y-74805543D01*
X133197130Y-74805543D02*
X133244749Y-74729352D01*
X133244749Y-74119829D02*
X132244749Y-73929353D01*
X132244749Y-73929353D02*
X132959035Y-73776972D01*
X132959035Y-73776972D02*
X132244749Y-73624591D01*
X132244749Y-73624591D02*
X133244749Y-73434115D01*
X133244749Y-72976971D02*
X133244749Y-72900781D01*
X133244749Y-72900781D02*
X133197130Y-72824590D01*
X133197130Y-72824590D02*
X133149511Y-72786495D01*
X133149511Y-72786495D02*
X133054273Y-72748400D01*
X133054273Y-72748400D02*
X132863797Y-72710305D01*
X132863797Y-72710305D02*
X132625702Y-72710305D01*
X132625702Y-72710305D02*
X132435226Y-72748400D01*
X132435226Y-72748400D02*
X132339988Y-72786495D01*
X132339988Y-72786495D02*
X132292369Y-72824590D01*
X132292369Y-72824590D02*
X132244749Y-72900781D01*
X132244749Y-72900781D02*
X132244749Y-72976971D01*
X132244749Y-72976971D02*
X132292369Y-73053162D01*
X132292369Y-73053162D02*
X132339988Y-73091257D01*
X132339988Y-73091257D02*
X132435226Y-73129352D01*
X132435226Y-73129352D02*
X132625702Y-73167448D01*
X132625702Y-73167448D02*
X132863797Y-73167448D01*
X132863797Y-73167448D02*
X133054273Y-73129352D01*
X133054273Y-73129352D02*
X133149511Y-73091257D01*
X133149511Y-73091257D02*
X133197130Y-73053162D01*
X133197130Y-73053162D02*
X133244749Y-72976971D01*
X136444749Y-70881733D02*
X135444749Y-70615066D01*
X135444749Y-70615066D02*
X136444749Y-70348400D01*
X135539988Y-69624590D02*
X135492369Y-69662686D01*
X135492369Y-69662686D02*
X135444749Y-69776971D01*
X135444749Y-69776971D02*
X135444749Y-69853162D01*
X135444749Y-69853162D02*
X135492369Y-69967448D01*
X135492369Y-69967448D02*
X135587607Y-70043638D01*
X135587607Y-70043638D02*
X135682845Y-70081733D01*
X135682845Y-70081733D02*
X135873321Y-70119829D01*
X135873321Y-70119829D02*
X136016178Y-70119829D01*
X136016178Y-70119829D02*
X136206654Y-70081733D01*
X136206654Y-70081733D02*
X136301892Y-70043638D01*
X136301892Y-70043638D02*
X136397130Y-69967448D01*
X136397130Y-69967448D02*
X136444749Y-69853162D01*
X136444749Y-69853162D02*
X136444749Y-69776971D01*
X136444749Y-69776971D02*
X136397130Y-69662686D01*
X136397130Y-69662686D02*
X136349511Y-69624590D01*
X135539988Y-68824590D02*
X135492369Y-68862686D01*
X135492369Y-68862686D02*
X135444749Y-68976971D01*
X135444749Y-68976971D02*
X135444749Y-69053162D01*
X135444749Y-69053162D02*
X135492369Y-69167448D01*
X135492369Y-69167448D02*
X135587607Y-69243638D01*
X135587607Y-69243638D02*
X135682845Y-69281733D01*
X135682845Y-69281733D02*
X135873321Y-69319829D01*
X135873321Y-69319829D02*
X136016178Y-69319829D01*
X136016178Y-69319829D02*
X136206654Y-69281733D01*
X136206654Y-69281733D02*
X136301892Y-69243638D01*
X136301892Y-69243638D02*
X136397130Y-69167448D01*
X136397130Y-69167448D02*
X136444749Y-69053162D01*
X136444749Y-69053162D02*
X136444749Y-68976971D01*
X136444749Y-68976971D02*
X136397130Y-68862686D01*
X136397130Y-68862686D02*
X136349511Y-68824590D01*
X120044749Y-74910305D02*
X120044749Y-75291257D01*
X120044749Y-75291257D02*
X121044749Y-75291257D01*
X120568559Y-74643638D02*
X120568559Y-74376972D01*
X120044749Y-74262686D02*
X120044749Y-74643638D01*
X120044749Y-74643638D02*
X121044749Y-74643638D01*
X121044749Y-74643638D02*
X121044749Y-74262686D01*
X120044749Y-73919828D02*
X121044749Y-73919828D01*
X121044749Y-73919828D02*
X121044749Y-73729352D01*
X121044749Y-73729352D02*
X120997130Y-73615066D01*
X120997130Y-73615066D02*
X120901892Y-73538876D01*
X120901892Y-73538876D02*
X120806654Y-73500781D01*
X120806654Y-73500781D02*
X120616178Y-73462685D01*
X120616178Y-73462685D02*
X120473321Y-73462685D01*
X120473321Y-73462685D02*
X120282845Y-73500781D01*
X120282845Y-73500781D02*
X120187607Y-73538876D01*
X120187607Y-73538876D02*
X120092369Y-73615066D01*
X120092369Y-73615066D02*
X120044749Y-73729352D01*
X120044749Y-73729352D02*
X120044749Y-73919828D01*
X121044749Y-72738876D02*
X121044749Y-73119828D01*
X121044749Y-73119828D02*
X120568559Y-73157924D01*
X120568559Y-73157924D02*
X120616178Y-73119828D01*
X120616178Y-73119828D02*
X120663797Y-73043638D01*
X120663797Y-73043638D02*
X120663797Y-72853162D01*
X120663797Y-72853162D02*
X120616178Y-72776971D01*
X120616178Y-72776971D02*
X120568559Y-72738876D01*
X120568559Y-72738876D02*
X120473321Y-72700781D01*
X120473321Y-72700781D02*
X120235226Y-72700781D01*
X120235226Y-72700781D02*
X120139988Y-72738876D01*
X120139988Y-72738876D02*
X120092369Y-72776971D01*
X120092369Y-72776971D02*
X120044749Y-72853162D01*
X120044749Y-72853162D02*
X120044749Y-73043638D01*
X120044749Y-73043638D02*
X120092369Y-73119828D01*
X120092369Y-73119828D02*
X120139988Y-73157924D01*
X115344749Y-54910305D02*
X115344749Y-55291257D01*
X115344749Y-55291257D02*
X116344749Y-55291257D01*
X115868559Y-54643638D02*
X115868559Y-54376972D01*
X115344749Y-54262686D02*
X115344749Y-54643638D01*
X115344749Y-54643638D02*
X116344749Y-54643638D01*
X116344749Y-54643638D02*
X116344749Y-54262686D01*
X115344749Y-53919828D02*
X116344749Y-53919828D01*
X116344749Y-53919828D02*
X116344749Y-53729352D01*
X116344749Y-53729352D02*
X116297130Y-53615066D01*
X116297130Y-53615066D02*
X116201892Y-53538876D01*
X116201892Y-53538876D02*
X116106654Y-53500781D01*
X116106654Y-53500781D02*
X115916178Y-53462685D01*
X115916178Y-53462685D02*
X115773321Y-53462685D01*
X115773321Y-53462685D02*
X115582845Y-53500781D01*
X115582845Y-53500781D02*
X115487607Y-53538876D01*
X115487607Y-53538876D02*
X115392369Y-53615066D01*
X115392369Y-53615066D02*
X115344749Y-53729352D01*
X115344749Y-53729352D02*
X115344749Y-53919828D01*
X116344749Y-52776971D02*
X116344749Y-52929352D01*
X116344749Y-52929352D02*
X116297130Y-53005543D01*
X116297130Y-53005543D02*
X116249511Y-53043638D01*
X116249511Y-53043638D02*
X116106654Y-53119828D01*
X116106654Y-53119828D02*
X115916178Y-53157924D01*
X115916178Y-53157924D02*
X115535226Y-53157924D01*
X115535226Y-53157924D02*
X115439988Y-53119828D01*
X115439988Y-53119828D02*
X115392369Y-53081733D01*
X115392369Y-53081733D02*
X115344749Y-53005543D01*
X115344749Y-53005543D02*
X115344749Y-52853162D01*
X115344749Y-52853162D02*
X115392369Y-52776971D01*
X115392369Y-52776971D02*
X115439988Y-52738876D01*
X115439988Y-52738876D02*
X115535226Y-52700781D01*
X115535226Y-52700781D02*
X115773321Y-52700781D01*
X115773321Y-52700781D02*
X115868559Y-52738876D01*
X115868559Y-52738876D02*
X115916178Y-52776971D01*
X115916178Y-52776971D02*
X115963797Y-52853162D01*
X115963797Y-52853162D02*
X115963797Y-53005543D01*
X115963797Y-53005543D02*
X115916178Y-53081733D01*
X115916178Y-53081733D02*
X115868559Y-53119828D01*
X115868559Y-53119828D02*
X115773321Y-53157924D01*
X127239988Y-54791256D02*
X127192369Y-54829352D01*
X127192369Y-54829352D02*
X127144749Y-54943637D01*
X127144749Y-54943637D02*
X127144749Y-55019828D01*
X127144749Y-55019828D02*
X127192369Y-55134114D01*
X127192369Y-55134114D02*
X127287607Y-55210304D01*
X127287607Y-55210304D02*
X127382845Y-55248399D01*
X127382845Y-55248399D02*
X127573321Y-55286495D01*
X127573321Y-55286495D02*
X127716178Y-55286495D01*
X127716178Y-55286495D02*
X127906654Y-55248399D01*
X127906654Y-55248399D02*
X128001892Y-55210304D01*
X128001892Y-55210304D02*
X128097130Y-55134114D01*
X128097130Y-55134114D02*
X128144749Y-55019828D01*
X128144749Y-55019828D02*
X128144749Y-54943637D01*
X128144749Y-54943637D02*
X128097130Y-54829352D01*
X128097130Y-54829352D02*
X128049511Y-54791256D01*
X128144749Y-54296018D02*
X128144749Y-54143637D01*
X128144749Y-54143637D02*
X128097130Y-54067447D01*
X128097130Y-54067447D02*
X128001892Y-53991256D01*
X128001892Y-53991256D02*
X127811416Y-53953161D01*
X127811416Y-53953161D02*
X127478083Y-53953161D01*
X127478083Y-53953161D02*
X127287607Y-53991256D01*
X127287607Y-53991256D02*
X127192369Y-54067447D01*
X127192369Y-54067447D02*
X127144749Y-54143637D01*
X127144749Y-54143637D02*
X127144749Y-54296018D01*
X127144749Y-54296018D02*
X127192369Y-54372209D01*
X127192369Y-54372209D02*
X127287607Y-54448399D01*
X127287607Y-54448399D02*
X127478083Y-54486495D01*
X127478083Y-54486495D02*
X127811416Y-54486495D01*
X127811416Y-54486495D02*
X128001892Y-54448399D01*
X128001892Y-54448399D02*
X128097130Y-54372209D01*
X128097130Y-54372209D02*
X128144749Y-54296018D01*
X127144749Y-53229352D02*
X127144749Y-53610304D01*
X127144749Y-53610304D02*
X128144749Y-53610304D01*
X128144749Y-52810304D02*
X128144749Y-52734114D01*
X128144749Y-52734114D02*
X128097130Y-52657923D01*
X128097130Y-52657923D02*
X128049511Y-52619828D01*
X128049511Y-52619828D02*
X127954273Y-52581733D01*
X127954273Y-52581733D02*
X127763797Y-52543638D01*
X127763797Y-52543638D02*
X127525702Y-52543638D01*
X127525702Y-52543638D02*
X127335226Y-52581733D01*
X127335226Y-52581733D02*
X127239988Y-52619828D01*
X127239988Y-52619828D02*
X127192369Y-52657923D01*
X127192369Y-52657923D02*
X127144749Y-52734114D01*
X127144749Y-52734114D02*
X127144749Y-52810304D01*
X127144749Y-52810304D02*
X127192369Y-52886495D01*
X127192369Y-52886495D02*
X127239988Y-52924590D01*
X127239988Y-52924590D02*
X127335226Y-52962685D01*
X127335226Y-52962685D02*
X127525702Y-53000781D01*
X127525702Y-53000781D02*
X127763797Y-53000781D01*
X127763797Y-53000781D02*
X127954273Y-52962685D01*
X127954273Y-52962685D02*
X128049511Y-52924590D01*
X128049511Y-52924590D02*
X128097130Y-52886495D01*
X128097130Y-52886495D02*
X128144749Y-52810304D01*
X119639988Y-54791256D02*
X119592369Y-54829352D01*
X119592369Y-54829352D02*
X119544749Y-54943637D01*
X119544749Y-54943637D02*
X119544749Y-55019828D01*
X119544749Y-55019828D02*
X119592369Y-55134114D01*
X119592369Y-55134114D02*
X119687607Y-55210304D01*
X119687607Y-55210304D02*
X119782845Y-55248399D01*
X119782845Y-55248399D02*
X119973321Y-55286495D01*
X119973321Y-55286495D02*
X120116178Y-55286495D01*
X120116178Y-55286495D02*
X120306654Y-55248399D01*
X120306654Y-55248399D02*
X120401892Y-55210304D01*
X120401892Y-55210304D02*
X120497130Y-55134114D01*
X120497130Y-55134114D02*
X120544749Y-55019828D01*
X120544749Y-55019828D02*
X120544749Y-54943637D01*
X120544749Y-54943637D02*
X120497130Y-54829352D01*
X120497130Y-54829352D02*
X120449511Y-54791256D01*
X120544749Y-54296018D02*
X120544749Y-54143637D01*
X120544749Y-54143637D02*
X120497130Y-54067447D01*
X120497130Y-54067447D02*
X120401892Y-53991256D01*
X120401892Y-53991256D02*
X120211416Y-53953161D01*
X120211416Y-53953161D02*
X119878083Y-53953161D01*
X119878083Y-53953161D02*
X119687607Y-53991256D01*
X119687607Y-53991256D02*
X119592369Y-54067447D01*
X119592369Y-54067447D02*
X119544749Y-54143637D01*
X119544749Y-54143637D02*
X119544749Y-54296018D01*
X119544749Y-54296018D02*
X119592369Y-54372209D01*
X119592369Y-54372209D02*
X119687607Y-54448399D01*
X119687607Y-54448399D02*
X119878083Y-54486495D01*
X119878083Y-54486495D02*
X120211416Y-54486495D01*
X120211416Y-54486495D02*
X120401892Y-54448399D01*
X120401892Y-54448399D02*
X120497130Y-54372209D01*
X120497130Y-54372209D02*
X120544749Y-54296018D01*
X119544749Y-53229352D02*
X119544749Y-53610304D01*
X119544749Y-53610304D02*
X120544749Y-53610304D01*
X120544749Y-53038876D02*
X120544749Y-52543638D01*
X120544749Y-52543638D02*
X120163797Y-52810304D01*
X120163797Y-52810304D02*
X120163797Y-52696019D01*
X120163797Y-52696019D02*
X120116178Y-52619828D01*
X120116178Y-52619828D02*
X120068559Y-52581733D01*
X120068559Y-52581733D02*
X119973321Y-52543638D01*
X119973321Y-52543638D02*
X119735226Y-52543638D01*
X119735226Y-52543638D02*
X119639988Y-52581733D01*
X119639988Y-52581733D02*
X119592369Y-52619828D01*
X119592369Y-52619828D02*
X119544749Y-52696019D01*
X119544749Y-52696019D02*
X119544749Y-52924590D01*
X119544749Y-52924590D02*
X119592369Y-53000781D01*
X119592369Y-53000781D02*
X119639988Y-53038876D01*
X129692369Y-55267448D02*
X129644749Y-55153162D01*
X129644749Y-55153162D02*
X129644749Y-54962686D01*
X129644749Y-54962686D02*
X129692369Y-54886495D01*
X129692369Y-54886495D02*
X129739988Y-54848400D01*
X129739988Y-54848400D02*
X129835226Y-54810305D01*
X129835226Y-54810305D02*
X129930464Y-54810305D01*
X129930464Y-54810305D02*
X130025702Y-54848400D01*
X130025702Y-54848400D02*
X130073321Y-54886495D01*
X130073321Y-54886495D02*
X130120940Y-54962686D01*
X130120940Y-54962686D02*
X130168559Y-55115067D01*
X130168559Y-55115067D02*
X130216178Y-55191257D01*
X130216178Y-55191257D02*
X130263797Y-55229352D01*
X130263797Y-55229352D02*
X130359035Y-55267448D01*
X130359035Y-55267448D02*
X130454273Y-55267448D01*
X130454273Y-55267448D02*
X130549511Y-55229352D01*
X130549511Y-55229352D02*
X130597130Y-55191257D01*
X130597130Y-55191257D02*
X130644749Y-55115067D01*
X130644749Y-55115067D02*
X130644749Y-54924590D01*
X130644749Y-54924590D02*
X130597130Y-54810305D01*
X129739988Y-54010304D02*
X129692369Y-54048400D01*
X129692369Y-54048400D02*
X129644749Y-54162685D01*
X129644749Y-54162685D02*
X129644749Y-54238876D01*
X129644749Y-54238876D02*
X129692369Y-54353162D01*
X129692369Y-54353162D02*
X129787607Y-54429352D01*
X129787607Y-54429352D02*
X129882845Y-54467447D01*
X129882845Y-54467447D02*
X130073321Y-54505543D01*
X130073321Y-54505543D02*
X130216178Y-54505543D01*
X130216178Y-54505543D02*
X130406654Y-54467447D01*
X130406654Y-54467447D02*
X130501892Y-54429352D01*
X130501892Y-54429352D02*
X130597130Y-54353162D01*
X130597130Y-54353162D02*
X130644749Y-54238876D01*
X130644749Y-54238876D02*
X130644749Y-54162685D01*
X130644749Y-54162685D02*
X130597130Y-54048400D01*
X130597130Y-54048400D02*
X130549511Y-54010304D01*
X129644749Y-53286495D02*
X129644749Y-53667447D01*
X129644749Y-53667447D02*
X130644749Y-53667447D01*
X122044749Y-74910305D02*
X122044749Y-75291257D01*
X122044749Y-75291257D02*
X123044749Y-75291257D01*
X122568559Y-74643638D02*
X122568559Y-74376972D01*
X122044749Y-74262686D02*
X122044749Y-74643638D01*
X122044749Y-74643638D02*
X123044749Y-74643638D01*
X123044749Y-74643638D02*
X123044749Y-74262686D01*
X122044749Y-73919828D02*
X123044749Y-73919828D01*
X123044749Y-73919828D02*
X123044749Y-73729352D01*
X123044749Y-73729352D02*
X122997130Y-73615066D01*
X122997130Y-73615066D02*
X122901892Y-73538876D01*
X122901892Y-73538876D02*
X122806654Y-73500781D01*
X122806654Y-73500781D02*
X122616178Y-73462685D01*
X122616178Y-73462685D02*
X122473321Y-73462685D01*
X122473321Y-73462685D02*
X122282845Y-73500781D01*
X122282845Y-73500781D02*
X122187607Y-73538876D01*
X122187607Y-73538876D02*
X122092369Y-73615066D01*
X122092369Y-73615066D02*
X122044749Y-73729352D01*
X122044749Y-73729352D02*
X122044749Y-73919828D01*
X122044749Y-73081733D02*
X122044749Y-72929352D01*
X122044749Y-72929352D02*
X122092369Y-72853162D01*
X122092369Y-72853162D02*
X122139988Y-72815066D01*
X122139988Y-72815066D02*
X122282845Y-72738876D01*
X122282845Y-72738876D02*
X122473321Y-72700781D01*
X122473321Y-72700781D02*
X122854273Y-72700781D01*
X122854273Y-72700781D02*
X122949511Y-72738876D01*
X122949511Y-72738876D02*
X122997130Y-72776971D01*
X122997130Y-72776971D02*
X123044749Y-72853162D01*
X123044749Y-72853162D02*
X123044749Y-73005543D01*
X123044749Y-73005543D02*
X122997130Y-73081733D01*
X122997130Y-73081733D02*
X122949511Y-73119828D01*
X122949511Y-73119828D02*
X122854273Y-73157924D01*
X122854273Y-73157924D02*
X122616178Y-73157924D01*
X122616178Y-73157924D02*
X122520940Y-73119828D01*
X122520940Y-73119828D02*
X122473321Y-73081733D01*
X122473321Y-73081733D02*
X122425702Y-73005543D01*
X122425702Y-73005543D02*
X122425702Y-72853162D01*
X122425702Y-72853162D02*
X122473321Y-72776971D01*
X122473321Y-72776971D02*
X122520940Y-72738876D01*
X122520940Y-72738876D02*
X122616178Y-72700781D01*
X116944749Y-54910305D02*
X116944749Y-55291257D01*
X116944749Y-55291257D02*
X117944749Y-55291257D01*
X117468559Y-54643638D02*
X117468559Y-54376972D01*
X116944749Y-54262686D02*
X116944749Y-54643638D01*
X116944749Y-54643638D02*
X117944749Y-54643638D01*
X117944749Y-54643638D02*
X117944749Y-54262686D01*
X116944749Y-53919828D02*
X117944749Y-53919828D01*
X117944749Y-53919828D02*
X117944749Y-53729352D01*
X117944749Y-53729352D02*
X117897130Y-53615066D01*
X117897130Y-53615066D02*
X117801892Y-53538876D01*
X117801892Y-53538876D02*
X117706654Y-53500781D01*
X117706654Y-53500781D02*
X117516178Y-53462685D01*
X117516178Y-53462685D02*
X117373321Y-53462685D01*
X117373321Y-53462685D02*
X117182845Y-53500781D01*
X117182845Y-53500781D02*
X117087607Y-53538876D01*
X117087607Y-53538876D02*
X116992369Y-53615066D01*
X116992369Y-53615066D02*
X116944749Y-53729352D01*
X116944749Y-53729352D02*
X116944749Y-53919828D01*
X117944749Y-53196019D02*
X117944749Y-52700781D01*
X117944749Y-52700781D02*
X117563797Y-52967447D01*
X117563797Y-52967447D02*
X117563797Y-52853162D01*
X117563797Y-52853162D02*
X117516178Y-52776971D01*
X117516178Y-52776971D02*
X117468559Y-52738876D01*
X117468559Y-52738876D02*
X117373321Y-52700781D01*
X117373321Y-52700781D02*
X117135226Y-52700781D01*
X117135226Y-52700781D02*
X117039988Y-52738876D01*
X117039988Y-52738876D02*
X116992369Y-52776971D01*
X116992369Y-52776971D02*
X116944749Y-52853162D01*
X116944749Y-52853162D02*
X116944749Y-53081733D01*
X116944749Y-53081733D02*
X116992369Y-53157924D01*
X116992369Y-53157924D02*
X117039988Y-53196019D01*
X114492369Y-74743638D02*
X114444749Y-74629352D01*
X114444749Y-74629352D02*
X114444749Y-74438876D01*
X114444749Y-74438876D02*
X114492369Y-74362685D01*
X114492369Y-74362685D02*
X114539988Y-74324590D01*
X114539988Y-74324590D02*
X114635226Y-74286495D01*
X114635226Y-74286495D02*
X114730464Y-74286495D01*
X114730464Y-74286495D02*
X114825702Y-74324590D01*
X114825702Y-74324590D02*
X114873321Y-74362685D01*
X114873321Y-74362685D02*
X114920940Y-74438876D01*
X114920940Y-74438876D02*
X114968559Y-74591257D01*
X114968559Y-74591257D02*
X115016178Y-74667447D01*
X115016178Y-74667447D02*
X115063797Y-74705542D01*
X115063797Y-74705542D02*
X115159035Y-74743638D01*
X115159035Y-74743638D02*
X115254273Y-74743638D01*
X115254273Y-74743638D02*
X115349511Y-74705542D01*
X115349511Y-74705542D02*
X115397130Y-74667447D01*
X115397130Y-74667447D02*
X115444749Y-74591257D01*
X115444749Y-74591257D02*
X115444749Y-74400780D01*
X115444749Y-74400780D02*
X115397130Y-74286495D01*
X114444749Y-73943637D02*
X115444749Y-73943637D01*
X115444749Y-73943637D02*
X115444749Y-73638875D01*
X115444749Y-73638875D02*
X115397130Y-73562685D01*
X115397130Y-73562685D02*
X115349511Y-73524590D01*
X115349511Y-73524590D02*
X115254273Y-73486494D01*
X115254273Y-73486494D02*
X115111416Y-73486494D01*
X115111416Y-73486494D02*
X115016178Y-73524590D01*
X115016178Y-73524590D02*
X114968559Y-73562685D01*
X114968559Y-73562685D02*
X114920940Y-73638875D01*
X114920940Y-73638875D02*
X114920940Y-73943637D01*
X114444749Y-73143637D02*
X115444749Y-73143637D01*
X114444749Y-72686494D02*
X115016178Y-73029352D01*
X115444749Y-72686494D02*
X114873321Y-73143637D01*
X121239988Y-54991256D02*
X121192369Y-55029352D01*
X121192369Y-55029352D02*
X121144749Y-55143637D01*
X121144749Y-55143637D02*
X121144749Y-55219828D01*
X121144749Y-55219828D02*
X121192369Y-55334114D01*
X121192369Y-55334114D02*
X121287607Y-55410304D01*
X121287607Y-55410304D02*
X121382845Y-55448399D01*
X121382845Y-55448399D02*
X121573321Y-55486495D01*
X121573321Y-55486495D02*
X121716178Y-55486495D01*
X121716178Y-55486495D02*
X121906654Y-55448399D01*
X121906654Y-55448399D02*
X122001892Y-55410304D01*
X122001892Y-55410304D02*
X122097130Y-55334114D01*
X122097130Y-55334114D02*
X122144749Y-55219828D01*
X122144749Y-55219828D02*
X122144749Y-55143637D01*
X122144749Y-55143637D02*
X122097130Y-55029352D01*
X122097130Y-55029352D02*
X122049511Y-54991256D01*
X122144749Y-54496018D02*
X122144749Y-54343637D01*
X122144749Y-54343637D02*
X122097130Y-54267447D01*
X122097130Y-54267447D02*
X122001892Y-54191256D01*
X122001892Y-54191256D02*
X121811416Y-54153161D01*
X121811416Y-54153161D02*
X121478083Y-54153161D01*
X121478083Y-54153161D02*
X121287607Y-54191256D01*
X121287607Y-54191256D02*
X121192369Y-54267447D01*
X121192369Y-54267447D02*
X121144749Y-54343637D01*
X121144749Y-54343637D02*
X121144749Y-54496018D01*
X121144749Y-54496018D02*
X121192369Y-54572209D01*
X121192369Y-54572209D02*
X121287607Y-54648399D01*
X121287607Y-54648399D02*
X121478083Y-54686495D01*
X121478083Y-54686495D02*
X121811416Y-54686495D01*
X121811416Y-54686495D02*
X122001892Y-54648399D01*
X122001892Y-54648399D02*
X122097130Y-54572209D01*
X122097130Y-54572209D02*
X122144749Y-54496018D01*
X121144749Y-53429352D02*
X121144749Y-53810304D01*
X121144749Y-53810304D02*
X122144749Y-53810304D01*
X122049511Y-53200781D02*
X122097130Y-53162685D01*
X122097130Y-53162685D02*
X122144749Y-53086495D01*
X122144749Y-53086495D02*
X122144749Y-52896019D01*
X122144749Y-52896019D02*
X122097130Y-52819828D01*
X122097130Y-52819828D02*
X122049511Y-52781733D01*
X122049511Y-52781733D02*
X121954273Y-52743638D01*
X121954273Y-52743638D02*
X121859035Y-52743638D01*
X121859035Y-52743638D02*
X121716178Y-52781733D01*
X121716178Y-52781733D02*
X121144749Y-53238876D01*
X121144749Y-53238876D02*
X121144749Y-52743638D01*
X132292369Y-55286495D02*
X132244749Y-55172209D01*
X132244749Y-55172209D02*
X132244749Y-54981733D01*
X132244749Y-54981733D02*
X132292369Y-54905542D01*
X132292369Y-54905542D02*
X132339988Y-54867447D01*
X132339988Y-54867447D02*
X132435226Y-54829352D01*
X132435226Y-54829352D02*
X132530464Y-54829352D01*
X132530464Y-54829352D02*
X132625702Y-54867447D01*
X132625702Y-54867447D02*
X132673321Y-54905542D01*
X132673321Y-54905542D02*
X132720940Y-54981733D01*
X132720940Y-54981733D02*
X132768559Y-55134114D01*
X132768559Y-55134114D02*
X132816178Y-55210304D01*
X132816178Y-55210304D02*
X132863797Y-55248399D01*
X132863797Y-55248399D02*
X132959035Y-55286495D01*
X132959035Y-55286495D02*
X133054273Y-55286495D01*
X133054273Y-55286495D02*
X133149511Y-55248399D01*
X133149511Y-55248399D02*
X133197130Y-55210304D01*
X133197130Y-55210304D02*
X133244749Y-55134114D01*
X133244749Y-55134114D02*
X133244749Y-54943637D01*
X133244749Y-54943637D02*
X133197130Y-54829352D01*
X132244749Y-54486494D02*
X133244749Y-54486494D01*
X133244749Y-54486494D02*
X133244749Y-54296018D01*
X133244749Y-54296018D02*
X133197130Y-54181732D01*
X133197130Y-54181732D02*
X133101892Y-54105542D01*
X133101892Y-54105542D02*
X133006654Y-54067447D01*
X133006654Y-54067447D02*
X132816178Y-54029351D01*
X132816178Y-54029351D02*
X132673321Y-54029351D01*
X132673321Y-54029351D02*
X132482845Y-54067447D01*
X132482845Y-54067447D02*
X132387607Y-54105542D01*
X132387607Y-54105542D02*
X132292369Y-54181732D01*
X132292369Y-54181732D02*
X132244749Y-54296018D01*
X132244749Y-54296018D02*
X132244749Y-54486494D01*
X132530464Y-53724590D02*
X132530464Y-53343637D01*
X132244749Y-53800780D02*
X133244749Y-53534113D01*
X133244749Y-53534113D02*
X132244749Y-53267447D01*
X116944749Y-74910305D02*
X116944749Y-75291257D01*
X116944749Y-75291257D02*
X117944749Y-75291257D01*
X117468559Y-74643638D02*
X117468559Y-74376972D01*
X116944749Y-74262686D02*
X116944749Y-74643638D01*
X116944749Y-74643638D02*
X117944749Y-74643638D01*
X117944749Y-74643638D02*
X117944749Y-74262686D01*
X116944749Y-73919828D02*
X117944749Y-73919828D01*
X117944749Y-73919828D02*
X117944749Y-73729352D01*
X117944749Y-73729352D02*
X117897130Y-73615066D01*
X117897130Y-73615066D02*
X117801892Y-73538876D01*
X117801892Y-73538876D02*
X117706654Y-73500781D01*
X117706654Y-73500781D02*
X117516178Y-73462685D01*
X117516178Y-73462685D02*
X117373321Y-73462685D01*
X117373321Y-73462685D02*
X117182845Y-73500781D01*
X117182845Y-73500781D02*
X117087607Y-73538876D01*
X117087607Y-73538876D02*
X116992369Y-73615066D01*
X116992369Y-73615066D02*
X116944749Y-73729352D01*
X116944749Y-73729352D02*
X116944749Y-73919828D01*
X117611416Y-72776971D02*
X116944749Y-72776971D01*
X117992369Y-72967447D02*
X117278083Y-73157924D01*
X117278083Y-73157924D02*
X117278083Y-72662685D01*
X135697130Y-54824590D02*
X135744749Y-54900780D01*
X135744749Y-54900780D02*
X135744749Y-55015066D01*
X135744749Y-55015066D02*
X135697130Y-55129352D01*
X135697130Y-55129352D02*
X135601892Y-55205542D01*
X135601892Y-55205542D02*
X135506654Y-55243637D01*
X135506654Y-55243637D02*
X135316178Y-55281733D01*
X135316178Y-55281733D02*
X135173321Y-55281733D01*
X135173321Y-55281733D02*
X134982845Y-55243637D01*
X134982845Y-55243637D02*
X134887607Y-55205542D01*
X134887607Y-55205542D02*
X134792369Y-55129352D01*
X134792369Y-55129352D02*
X134744749Y-55015066D01*
X134744749Y-55015066D02*
X134744749Y-54938875D01*
X134744749Y-54938875D02*
X134792369Y-54824590D01*
X134792369Y-54824590D02*
X134839988Y-54786494D01*
X134839988Y-54786494D02*
X135173321Y-54786494D01*
X135173321Y-54786494D02*
X135173321Y-54938875D01*
X134744749Y-54443637D02*
X135744749Y-54443637D01*
X135744749Y-54443637D02*
X134744749Y-53986494D01*
X134744749Y-53986494D02*
X135744749Y-53986494D01*
X134744749Y-53605542D02*
X135744749Y-53605542D01*
X135744749Y-53605542D02*
X135744749Y-53415066D01*
X135744749Y-53415066D02*
X135697130Y-53300780D01*
X135697130Y-53300780D02*
X135601892Y-53224590D01*
X135601892Y-53224590D02*
X135506654Y-53186495D01*
X135506654Y-53186495D02*
X135316178Y-53148399D01*
X135316178Y-53148399D02*
X135173321Y-53148399D01*
X135173321Y-53148399D02*
X134982845Y-53186495D01*
X134982845Y-53186495D02*
X134887607Y-53224590D01*
X134887607Y-53224590D02*
X134792369Y-53300780D01*
X134792369Y-53300780D02*
X134744749Y-53415066D01*
X134744749Y-53415066D02*
X134744749Y-53605542D01*
X142382749Y-74367447D02*
X142858940Y-74634114D01*
X142382749Y-74824590D02*
X143382749Y-74824590D01*
X143382749Y-74824590D02*
X143382749Y-74519828D01*
X143382749Y-74519828D02*
X143335130Y-74443638D01*
X143335130Y-74443638D02*
X143287511Y-74405543D01*
X143287511Y-74405543D02*
X143192273Y-74367447D01*
X143192273Y-74367447D02*
X143049416Y-74367447D01*
X143049416Y-74367447D02*
X142954178Y-74405543D01*
X142954178Y-74405543D02*
X142906559Y-74443638D01*
X142906559Y-74443638D02*
X142858940Y-74519828D01*
X142858940Y-74519828D02*
X142858940Y-74824590D01*
X142668464Y-74062686D02*
X142668464Y-73681733D01*
X142382749Y-74138876D02*
X143382749Y-73872209D01*
X143382749Y-73872209D02*
X142382749Y-73605543D01*
X143382749Y-73415067D02*
X142382749Y-73224591D01*
X142382749Y-73224591D02*
X143097035Y-73072210D01*
X143097035Y-73072210D02*
X142382749Y-72919829D01*
X142382749Y-72919829D02*
X143382749Y-72729353D01*
X142382749Y-59710305D02*
X142382749Y-60091257D01*
X142382749Y-60091257D02*
X143382749Y-60091257D01*
X142906559Y-59443638D02*
X142906559Y-59176972D01*
X142382749Y-59062686D02*
X142382749Y-59443638D01*
X142382749Y-59443638D02*
X143382749Y-59443638D01*
X143382749Y-59443638D02*
X143382749Y-59062686D01*
X142382749Y-58719828D02*
X143382749Y-58719828D01*
X143382749Y-58719828D02*
X143382749Y-58529352D01*
X143382749Y-58529352D02*
X143335130Y-58415066D01*
X143335130Y-58415066D02*
X143239892Y-58338876D01*
X143239892Y-58338876D02*
X143144654Y-58300781D01*
X143144654Y-58300781D02*
X142954178Y-58262685D01*
X142954178Y-58262685D02*
X142811321Y-58262685D01*
X142811321Y-58262685D02*
X142620845Y-58300781D01*
X142620845Y-58300781D02*
X142525607Y-58338876D01*
X142525607Y-58338876D02*
X142430369Y-58415066D01*
X142430369Y-58415066D02*
X142382749Y-58529352D01*
X142382749Y-58529352D02*
X142382749Y-58719828D01*
X142382749Y-57500781D02*
X142382749Y-57957924D01*
X142382749Y-57729352D02*
X143382749Y-57729352D01*
X143382749Y-57729352D02*
X143239892Y-57805543D01*
X143239892Y-57805543D02*
X143144654Y-57881733D01*
X143144654Y-57881733D02*
X143097035Y-57957924D01*
X140797130Y-74424590D02*
X140844749Y-74500780D01*
X140844749Y-74500780D02*
X140844749Y-74615066D01*
X140844749Y-74615066D02*
X140797130Y-74729352D01*
X140797130Y-74729352D02*
X140701892Y-74805542D01*
X140701892Y-74805542D02*
X140606654Y-74843637D01*
X140606654Y-74843637D02*
X140416178Y-74881733D01*
X140416178Y-74881733D02*
X140273321Y-74881733D01*
X140273321Y-74881733D02*
X140082845Y-74843637D01*
X140082845Y-74843637D02*
X139987607Y-74805542D01*
X139987607Y-74805542D02*
X139892369Y-74729352D01*
X139892369Y-74729352D02*
X139844749Y-74615066D01*
X139844749Y-74615066D02*
X139844749Y-74538875D01*
X139844749Y-74538875D02*
X139892369Y-74424590D01*
X139892369Y-74424590D02*
X139939988Y-74386494D01*
X139939988Y-74386494D02*
X140273321Y-74386494D01*
X140273321Y-74386494D02*
X140273321Y-74538875D01*
X139844749Y-74043637D02*
X140844749Y-74043637D01*
X140844749Y-74043637D02*
X139844749Y-73586494D01*
X139844749Y-73586494D02*
X140844749Y-73586494D01*
X139844749Y-73205542D02*
X140844749Y-73205542D01*
X140844749Y-73205542D02*
X140844749Y-73015066D01*
X140844749Y-73015066D02*
X140797130Y-72900780D01*
X140797130Y-72900780D02*
X140701892Y-72824590D01*
X140701892Y-72824590D02*
X140606654Y-72786495D01*
X140606654Y-72786495D02*
X140416178Y-72748399D01*
X140416178Y-72748399D02*
X140273321Y-72748399D01*
X140273321Y-72748399D02*
X140082845Y-72786495D01*
X140082845Y-72786495D02*
X139987607Y-72824590D01*
X139987607Y-72824590D02*
X139892369Y-72900780D01*
X139892369Y-72900780D02*
X139844749Y-73015066D01*
X139844749Y-73015066D02*
X139844749Y-73205542D01*
X138297130Y-54824590D02*
X138344749Y-54900780D01*
X138344749Y-54900780D02*
X138344749Y-55015066D01*
X138344749Y-55015066D02*
X138297130Y-55129352D01*
X138297130Y-55129352D02*
X138201892Y-55205542D01*
X138201892Y-55205542D02*
X138106654Y-55243637D01*
X138106654Y-55243637D02*
X137916178Y-55281733D01*
X137916178Y-55281733D02*
X137773321Y-55281733D01*
X137773321Y-55281733D02*
X137582845Y-55243637D01*
X137582845Y-55243637D02*
X137487607Y-55205542D01*
X137487607Y-55205542D02*
X137392369Y-55129352D01*
X137392369Y-55129352D02*
X137344749Y-55015066D01*
X137344749Y-55015066D02*
X137344749Y-54938875D01*
X137344749Y-54938875D02*
X137392369Y-54824590D01*
X137392369Y-54824590D02*
X137439988Y-54786494D01*
X137439988Y-54786494D02*
X137773321Y-54786494D01*
X137773321Y-54786494D02*
X137773321Y-54938875D01*
X137344749Y-54443637D02*
X138344749Y-54443637D01*
X138344749Y-54443637D02*
X137344749Y-53986494D01*
X137344749Y-53986494D02*
X138344749Y-53986494D01*
X137344749Y-53605542D02*
X138344749Y-53605542D01*
X138344749Y-53605542D02*
X138344749Y-53415066D01*
X138344749Y-53415066D02*
X138297130Y-53300780D01*
X138297130Y-53300780D02*
X138201892Y-53224590D01*
X138201892Y-53224590D02*
X138106654Y-53186495D01*
X138106654Y-53186495D02*
X137916178Y-53148399D01*
X137916178Y-53148399D02*
X137773321Y-53148399D01*
X137773321Y-53148399D02*
X137582845Y-53186495D01*
X137582845Y-53186495D02*
X137487607Y-53224590D01*
X137487607Y-53224590D02*
X137392369Y-53300780D01*
X137392369Y-53300780D02*
X137344749Y-53415066D01*
X137344749Y-53415066D02*
X137344749Y-53605542D01*
X139832749Y-59710305D02*
X139832749Y-60091257D01*
X139832749Y-60091257D02*
X140832749Y-60091257D01*
X140356559Y-59443638D02*
X140356559Y-59176972D01*
X139832749Y-59062686D02*
X139832749Y-59443638D01*
X139832749Y-59443638D02*
X140832749Y-59443638D01*
X140832749Y-59443638D02*
X140832749Y-59062686D01*
X139832749Y-58719828D02*
X140832749Y-58719828D01*
X140832749Y-58719828D02*
X140832749Y-58529352D01*
X140832749Y-58529352D02*
X140785130Y-58415066D01*
X140785130Y-58415066D02*
X140689892Y-58338876D01*
X140689892Y-58338876D02*
X140594654Y-58300781D01*
X140594654Y-58300781D02*
X140404178Y-58262685D01*
X140404178Y-58262685D02*
X140261321Y-58262685D01*
X140261321Y-58262685D02*
X140070845Y-58300781D01*
X140070845Y-58300781D02*
X139975607Y-58338876D01*
X139975607Y-58338876D02*
X139880369Y-58415066D01*
X139880369Y-58415066D02*
X139832749Y-58529352D01*
X139832749Y-58529352D02*
X139832749Y-58719828D01*
X140737511Y-57957924D02*
X140785130Y-57919828D01*
X140785130Y-57919828D02*
X140832749Y-57843638D01*
X140832749Y-57843638D02*
X140832749Y-57653162D01*
X140832749Y-57653162D02*
X140785130Y-57576971D01*
X140785130Y-57576971D02*
X140737511Y-57538876D01*
X140737511Y-57538876D02*
X140642273Y-57500781D01*
X140642273Y-57500781D02*
X140547035Y-57500781D01*
X140547035Y-57500781D02*
X140404178Y-57538876D01*
X140404178Y-57538876D02*
X139832749Y-57996019D01*
X139832749Y-57996019D02*
X139832749Y-57500781D01*
X93532901Y-73722267D02*
X93390044Y-73769886D01*
X93390044Y-73769886D02*
X93151949Y-73769886D01*
X93151949Y-73769886D02*
X93056711Y-73722267D01*
X93056711Y-73722267D02*
X93009092Y-73674647D01*
X93009092Y-73674647D02*
X92961473Y-73579409D01*
X92961473Y-73579409D02*
X92961473Y-73484171D01*
X92961473Y-73484171D02*
X93009092Y-73388933D01*
X93009092Y-73388933D02*
X93056711Y-73341314D01*
X93056711Y-73341314D02*
X93151949Y-73293695D01*
X93151949Y-73293695D02*
X93342425Y-73246076D01*
X93342425Y-73246076D02*
X93437663Y-73198457D01*
X93437663Y-73198457D02*
X93485282Y-73150838D01*
X93485282Y-73150838D02*
X93532901Y-73055600D01*
X93532901Y-73055600D02*
X93532901Y-72960362D01*
X93532901Y-72960362D02*
X93485282Y-72865124D01*
X93485282Y-72865124D02*
X93437663Y-72817505D01*
X93437663Y-72817505D02*
X93342425Y-72769886D01*
X93342425Y-72769886D02*
X93104330Y-72769886D01*
X93104330Y-72769886D02*
X92961473Y-72817505D01*
X92628139Y-72769886D02*
X92390044Y-73769886D01*
X92390044Y-73769886D02*
X92199568Y-73055600D01*
X92199568Y-73055600D02*
X92009092Y-73769886D01*
X92009092Y-73769886D02*
X91770997Y-72769886D01*
X91247187Y-73198457D02*
X91342425Y-73150838D01*
X91342425Y-73150838D02*
X91390044Y-73103219D01*
X91390044Y-73103219D02*
X91437663Y-73007981D01*
X91437663Y-73007981D02*
X91437663Y-72960362D01*
X91437663Y-72960362D02*
X91390044Y-72865124D01*
X91390044Y-72865124D02*
X91342425Y-72817505D01*
X91342425Y-72817505D02*
X91247187Y-72769886D01*
X91247187Y-72769886D02*
X91056711Y-72769886D01*
X91056711Y-72769886D02*
X90961473Y-72817505D01*
X90961473Y-72817505D02*
X90913854Y-72865124D01*
X90913854Y-72865124D02*
X90866235Y-72960362D01*
X90866235Y-72960362D02*
X90866235Y-73007981D01*
X90866235Y-73007981D02*
X90913854Y-73103219D01*
X90913854Y-73103219D02*
X90961473Y-73150838D01*
X90961473Y-73150838D02*
X91056711Y-73198457D01*
X91056711Y-73198457D02*
X91247187Y-73198457D01*
X91247187Y-73198457D02*
X91342425Y-73246076D01*
X91342425Y-73246076D02*
X91390044Y-73293695D01*
X91390044Y-73293695D02*
X91437663Y-73388933D01*
X91437663Y-73388933D02*
X91437663Y-73579409D01*
X91437663Y-73579409D02*
X91390044Y-73674647D01*
X91390044Y-73674647D02*
X91342425Y-73722267D01*
X91342425Y-73722267D02*
X91247187Y-73769886D01*
X91247187Y-73769886D02*
X91056711Y-73769886D01*
X91056711Y-73769886D02*
X90961473Y-73722267D01*
X90961473Y-73722267D02*
X90913854Y-73674647D01*
X90913854Y-73674647D02*
X90866235Y-73579409D01*
X90866235Y-73579409D02*
X90866235Y-73388933D01*
X90866235Y-73388933D02*
X90913854Y-73293695D01*
X90913854Y-73293695D02*
X90961473Y-73246076D01*
X90961473Y-73246076D02*
X91056711Y-73198457D01*
X36382901Y-54672267D02*
X36240044Y-54719886D01*
X36240044Y-54719886D02*
X36001949Y-54719886D01*
X36001949Y-54719886D02*
X35906711Y-54672267D01*
X35906711Y-54672267D02*
X35859092Y-54624647D01*
X35859092Y-54624647D02*
X35811473Y-54529409D01*
X35811473Y-54529409D02*
X35811473Y-54434171D01*
X35811473Y-54434171D02*
X35859092Y-54338933D01*
X35859092Y-54338933D02*
X35906711Y-54291314D01*
X35906711Y-54291314D02*
X36001949Y-54243695D01*
X36001949Y-54243695D02*
X36192425Y-54196076D01*
X36192425Y-54196076D02*
X36287663Y-54148457D01*
X36287663Y-54148457D02*
X36335282Y-54100838D01*
X36335282Y-54100838D02*
X36382901Y-54005600D01*
X36382901Y-54005600D02*
X36382901Y-53910362D01*
X36382901Y-53910362D02*
X36335282Y-53815124D01*
X36335282Y-53815124D02*
X36287663Y-53767505D01*
X36287663Y-53767505D02*
X36192425Y-53719886D01*
X36192425Y-53719886D02*
X35954330Y-53719886D01*
X35954330Y-53719886D02*
X35811473Y-53767505D01*
X35478139Y-53719886D02*
X35240044Y-54719886D01*
X35240044Y-54719886D02*
X35049568Y-54005600D01*
X35049568Y-54005600D02*
X34859092Y-54719886D01*
X34859092Y-54719886D02*
X34620997Y-53719886D01*
X33716235Y-54719886D02*
X34287663Y-54719886D01*
X34001949Y-54719886D02*
X34001949Y-53719886D01*
X34001949Y-53719886D02*
X34097187Y-53862743D01*
X34097187Y-53862743D02*
X34192425Y-53957981D01*
X34192425Y-53957981D02*
X34287663Y-54005600D01*
X74482901Y-73722267D02*
X74340044Y-73769886D01*
X74340044Y-73769886D02*
X74101949Y-73769886D01*
X74101949Y-73769886D02*
X74006711Y-73722267D01*
X74006711Y-73722267D02*
X73959092Y-73674647D01*
X73959092Y-73674647D02*
X73911473Y-73579409D01*
X73911473Y-73579409D02*
X73911473Y-73484171D01*
X73911473Y-73484171D02*
X73959092Y-73388933D01*
X73959092Y-73388933D02*
X74006711Y-73341314D01*
X74006711Y-73341314D02*
X74101949Y-73293695D01*
X74101949Y-73293695D02*
X74292425Y-73246076D01*
X74292425Y-73246076D02*
X74387663Y-73198457D01*
X74387663Y-73198457D02*
X74435282Y-73150838D01*
X74435282Y-73150838D02*
X74482901Y-73055600D01*
X74482901Y-73055600D02*
X74482901Y-72960362D01*
X74482901Y-72960362D02*
X74435282Y-72865124D01*
X74435282Y-72865124D02*
X74387663Y-72817505D01*
X74387663Y-72817505D02*
X74292425Y-72769886D01*
X74292425Y-72769886D02*
X74054330Y-72769886D01*
X74054330Y-72769886D02*
X73911473Y-72817505D01*
X73578139Y-72769886D02*
X73340044Y-73769886D01*
X73340044Y-73769886D02*
X73149568Y-73055600D01*
X73149568Y-73055600D02*
X72959092Y-73769886D01*
X72959092Y-73769886D02*
X72720997Y-72769886D01*
X71911473Y-72769886D02*
X72101949Y-72769886D01*
X72101949Y-72769886D02*
X72197187Y-72817505D01*
X72197187Y-72817505D02*
X72244806Y-72865124D01*
X72244806Y-72865124D02*
X72340044Y-73007981D01*
X72340044Y-73007981D02*
X72387663Y-73198457D01*
X72387663Y-73198457D02*
X72387663Y-73579409D01*
X72387663Y-73579409D02*
X72340044Y-73674647D01*
X72340044Y-73674647D02*
X72292425Y-73722267D01*
X72292425Y-73722267D02*
X72197187Y-73769886D01*
X72197187Y-73769886D02*
X72006711Y-73769886D01*
X72006711Y-73769886D02*
X71911473Y-73722267D01*
X71911473Y-73722267D02*
X71863854Y-73674647D01*
X71863854Y-73674647D02*
X71816235Y-73579409D01*
X71816235Y-73579409D02*
X71816235Y-73341314D01*
X71816235Y-73341314D02*
X71863854Y-73246076D01*
X71863854Y-73246076D02*
X71911473Y-73198457D01*
X71911473Y-73198457D02*
X72006711Y-73150838D01*
X72006711Y-73150838D02*
X72197187Y-73150838D01*
X72197187Y-73150838D02*
X72292425Y-73198457D01*
X72292425Y-73198457D02*
X72340044Y-73246076D01*
X72340044Y-73246076D02*
X72387663Y-73341314D01*
X55432901Y-73722267D02*
X55290044Y-73769886D01*
X55290044Y-73769886D02*
X55051949Y-73769886D01*
X55051949Y-73769886D02*
X54956711Y-73722267D01*
X54956711Y-73722267D02*
X54909092Y-73674647D01*
X54909092Y-73674647D02*
X54861473Y-73579409D01*
X54861473Y-73579409D02*
X54861473Y-73484171D01*
X54861473Y-73484171D02*
X54909092Y-73388933D01*
X54909092Y-73388933D02*
X54956711Y-73341314D01*
X54956711Y-73341314D02*
X55051949Y-73293695D01*
X55051949Y-73293695D02*
X55242425Y-73246076D01*
X55242425Y-73246076D02*
X55337663Y-73198457D01*
X55337663Y-73198457D02*
X55385282Y-73150838D01*
X55385282Y-73150838D02*
X55432901Y-73055600D01*
X55432901Y-73055600D02*
X55432901Y-72960362D01*
X55432901Y-72960362D02*
X55385282Y-72865124D01*
X55385282Y-72865124D02*
X55337663Y-72817505D01*
X55337663Y-72817505D02*
X55242425Y-72769886D01*
X55242425Y-72769886D02*
X55004330Y-72769886D01*
X55004330Y-72769886D02*
X54861473Y-72817505D01*
X54528139Y-72769886D02*
X54290044Y-73769886D01*
X54290044Y-73769886D02*
X54099568Y-73055600D01*
X54099568Y-73055600D02*
X53909092Y-73769886D01*
X53909092Y-73769886D02*
X53670997Y-72769886D01*
X52861473Y-73103219D02*
X52861473Y-73769886D01*
X53099568Y-72722267D02*
X53337663Y-73436552D01*
X53337663Y-73436552D02*
X52718616Y-73436552D01*
X74482901Y-54672267D02*
X74340044Y-54719886D01*
X74340044Y-54719886D02*
X74101949Y-54719886D01*
X74101949Y-54719886D02*
X74006711Y-54672267D01*
X74006711Y-54672267D02*
X73959092Y-54624647D01*
X73959092Y-54624647D02*
X73911473Y-54529409D01*
X73911473Y-54529409D02*
X73911473Y-54434171D01*
X73911473Y-54434171D02*
X73959092Y-54338933D01*
X73959092Y-54338933D02*
X74006711Y-54291314D01*
X74006711Y-54291314D02*
X74101949Y-54243695D01*
X74101949Y-54243695D02*
X74292425Y-54196076D01*
X74292425Y-54196076D02*
X74387663Y-54148457D01*
X74387663Y-54148457D02*
X74435282Y-54100838D01*
X74435282Y-54100838D02*
X74482901Y-54005600D01*
X74482901Y-54005600D02*
X74482901Y-53910362D01*
X74482901Y-53910362D02*
X74435282Y-53815124D01*
X74435282Y-53815124D02*
X74387663Y-53767505D01*
X74387663Y-53767505D02*
X74292425Y-53719886D01*
X74292425Y-53719886D02*
X74054330Y-53719886D01*
X74054330Y-53719886D02*
X73911473Y-53767505D01*
X73578139Y-53719886D02*
X73340044Y-54719886D01*
X73340044Y-54719886D02*
X73149568Y-54005600D01*
X73149568Y-54005600D02*
X72959092Y-54719886D01*
X72959092Y-54719886D02*
X72720997Y-53719886D01*
X71863854Y-53719886D02*
X72340044Y-53719886D01*
X72340044Y-53719886D02*
X72387663Y-54196076D01*
X72387663Y-54196076D02*
X72340044Y-54148457D01*
X72340044Y-54148457D02*
X72244806Y-54100838D01*
X72244806Y-54100838D02*
X72006711Y-54100838D01*
X72006711Y-54100838D02*
X71911473Y-54148457D01*
X71911473Y-54148457D02*
X71863854Y-54196076D01*
X71863854Y-54196076D02*
X71816235Y-54291314D01*
X71816235Y-54291314D02*
X71816235Y-54529409D01*
X71816235Y-54529409D02*
X71863854Y-54624647D01*
X71863854Y-54624647D02*
X71911473Y-54672267D01*
X71911473Y-54672267D02*
X72006711Y-54719886D01*
X72006711Y-54719886D02*
X72244806Y-54719886D01*
X72244806Y-54719886D02*
X72340044Y-54672267D01*
X72340044Y-54672267D02*
X72387663Y-54624647D01*
X112358616Y-55104886D02*
X112834806Y-55104886D01*
X112834806Y-55104886D02*
X112834806Y-54104886D01*
X112025282Y-54581076D02*
X111691949Y-54581076D01*
X111549092Y-55104886D02*
X112025282Y-55104886D01*
X112025282Y-55104886D02*
X112025282Y-54104886D01*
X112025282Y-54104886D02*
X111549092Y-54104886D01*
X111120520Y-55104886D02*
X111120520Y-54104886D01*
X111120520Y-54104886D02*
X110882425Y-54104886D01*
X110882425Y-54104886D02*
X110739568Y-54152505D01*
X110739568Y-54152505D02*
X110644330Y-54247743D01*
X110644330Y-54247743D02*
X110596711Y-54342981D01*
X110596711Y-54342981D02*
X110549092Y-54533457D01*
X110549092Y-54533457D02*
X110549092Y-54676314D01*
X110549092Y-54676314D02*
X110596711Y-54866790D01*
X110596711Y-54866790D02*
X110644330Y-54962028D01*
X110644330Y-54962028D02*
X110739568Y-55057267D01*
X110739568Y-55057267D02*
X110882425Y-55104886D01*
X110882425Y-55104886D02*
X111120520Y-55104886D01*
X110072901Y-55104886D02*
X109882425Y-55104886D01*
X109882425Y-55104886D02*
X109787187Y-55057267D01*
X109787187Y-55057267D02*
X109739568Y-55009647D01*
X109739568Y-55009647D02*
X109644330Y-54866790D01*
X109644330Y-54866790D02*
X109596711Y-54676314D01*
X109596711Y-54676314D02*
X109596711Y-54295362D01*
X109596711Y-54295362D02*
X109644330Y-54200124D01*
X109644330Y-54200124D02*
X109691949Y-54152505D01*
X109691949Y-54152505D02*
X109787187Y-54104886D01*
X109787187Y-54104886D02*
X109977663Y-54104886D01*
X109977663Y-54104886D02*
X110072901Y-54152505D01*
X110072901Y-54152505D02*
X110120520Y-54200124D01*
X110120520Y-54200124D02*
X110168139Y-54295362D01*
X110168139Y-54295362D02*
X110168139Y-54533457D01*
X110168139Y-54533457D02*
X110120520Y-54628695D01*
X110120520Y-54628695D02*
X110072901Y-54676314D01*
X110072901Y-54676314D02*
X109977663Y-54723933D01*
X109977663Y-54723933D02*
X109787187Y-54723933D01*
X109787187Y-54723933D02*
X109691949Y-54676314D01*
X109691949Y-54676314D02*
X109644330Y-54628695D01*
X109644330Y-54628695D02*
X109596711Y-54533457D01*
X112601473Y-50404886D02*
X112030045Y-50404886D01*
X112315759Y-51404886D02*
X112315759Y-50404886D01*
X111696711Y-51404886D02*
X111696711Y-50404886D01*
X111696711Y-50404886D02*
X111315759Y-50404886D01*
X111315759Y-50404886D02*
X111220521Y-50452505D01*
X111220521Y-50452505D02*
X111172902Y-50500124D01*
X111172902Y-50500124D02*
X111125283Y-50595362D01*
X111125283Y-50595362D02*
X111125283Y-50738219D01*
X111125283Y-50738219D02*
X111172902Y-50833457D01*
X111172902Y-50833457D02*
X111220521Y-50881076D01*
X111220521Y-50881076D02*
X111315759Y-50928695D01*
X111315759Y-50928695D02*
X111696711Y-50928695D01*
X110268140Y-50738219D02*
X110268140Y-51404886D01*
X110506235Y-50357267D02*
X110744330Y-51071552D01*
X110744330Y-51071552D02*
X110125283Y-51071552D01*
X36382901Y-73722267D02*
X36240044Y-73769886D01*
X36240044Y-73769886D02*
X36001949Y-73769886D01*
X36001949Y-73769886D02*
X35906711Y-73722267D01*
X35906711Y-73722267D02*
X35859092Y-73674647D01*
X35859092Y-73674647D02*
X35811473Y-73579409D01*
X35811473Y-73579409D02*
X35811473Y-73484171D01*
X35811473Y-73484171D02*
X35859092Y-73388933D01*
X35859092Y-73388933D02*
X35906711Y-73341314D01*
X35906711Y-73341314D02*
X36001949Y-73293695D01*
X36001949Y-73293695D02*
X36192425Y-73246076D01*
X36192425Y-73246076D02*
X36287663Y-73198457D01*
X36287663Y-73198457D02*
X36335282Y-73150838D01*
X36335282Y-73150838D02*
X36382901Y-73055600D01*
X36382901Y-73055600D02*
X36382901Y-72960362D01*
X36382901Y-72960362D02*
X36335282Y-72865124D01*
X36335282Y-72865124D02*
X36287663Y-72817505D01*
X36287663Y-72817505D02*
X36192425Y-72769886D01*
X36192425Y-72769886D02*
X35954330Y-72769886D01*
X35954330Y-72769886D02*
X35811473Y-72817505D01*
X35478139Y-72769886D02*
X35240044Y-73769886D01*
X35240044Y-73769886D02*
X35049568Y-73055600D01*
X35049568Y-73055600D02*
X34859092Y-73769886D01*
X34859092Y-73769886D02*
X34620997Y-72769886D01*
X34287663Y-72865124D02*
X34240044Y-72817505D01*
X34240044Y-72817505D02*
X34144806Y-72769886D01*
X34144806Y-72769886D02*
X33906711Y-72769886D01*
X33906711Y-72769886D02*
X33811473Y-72817505D01*
X33811473Y-72817505D02*
X33763854Y-72865124D01*
X33763854Y-72865124D02*
X33716235Y-72960362D01*
X33716235Y-72960362D02*
X33716235Y-73055600D01*
X33716235Y-73055600D02*
X33763854Y-73198457D01*
X33763854Y-73198457D02*
X34335282Y-73769886D01*
X34335282Y-73769886D02*
X33716235Y-73769886D01*
G36*
X96367070Y-82645973D02*
G01*
X96412008Y-82662402D01*
X96421539Y-82667199D01*
X96462221Y-82694096D01*
X96496364Y-82727989D01*
X96523376Y-82768190D01*
X96542664Y-82814010D01*
X96553472Y-82848359D01*
X96553472Y-83604457D01*
X96553472Y-84360554D01*
X96542220Y-84391708D01*
X96540124Y-84397319D01*
X96518139Y-84441831D01*
X96489075Y-84480834D01*
X96453917Y-84513397D01*
X96413648Y-84538587D01*
X96369254Y-84555473D01*
X96349117Y-84559544D01*
X96314463Y-84562319D01*
X96278865Y-84561046D01*
X96247097Y-84555717D01*
X96240895Y-84554013D01*
X96196355Y-84536218D01*
X96156308Y-84510255D01*
X96121647Y-84476959D01*
X96093261Y-84437166D01*
X96072041Y-84391708D01*
X96060789Y-84360554D01*
X96060789Y-83604457D01*
X96060789Y-82848359D01*
X96071596Y-82814010D01*
X96074681Y-82804792D01*
X96094920Y-82761078D01*
X96121916Y-82723248D01*
X96154620Y-82691769D01*
X96191983Y-82667107D01*
X96232959Y-82649729D01*
X96276497Y-82640103D01*
X96321550Y-82638695D01*
X96367070Y-82645973D01*
G37*
G36*
X96367811Y-81874217D02*
G01*
X96412775Y-81889449D01*
X96455123Y-81913126D01*
X96493720Y-81945247D01*
X96516173Y-81970542D01*
X96543218Y-82012429D01*
X96561545Y-82057560D01*
X96570989Y-82104950D01*
X96571388Y-82153611D01*
X96562577Y-82202556D01*
X96544392Y-82250798D01*
X96521843Y-82287397D01*
X96491528Y-82321262D01*
X96455480Y-82350662D01*
X96415673Y-82373989D01*
X96374084Y-82389632D01*
X96365211Y-82391690D01*
X96335620Y-82395532D01*
X96302442Y-82396516D01*
X96269912Y-82394633D01*
X96242268Y-82389876D01*
X96241427Y-82389655D01*
X96196325Y-82372942D01*
X96154817Y-82348190D01*
X96118094Y-82316611D01*
X96087348Y-82279417D01*
X96063770Y-82237817D01*
X96048554Y-82193024D01*
X96044537Y-82171640D01*
X96042102Y-82122302D01*
X96048848Y-82073742D01*
X96064412Y-82027213D01*
X96088430Y-81983964D01*
X96120540Y-81945247D01*
X96143492Y-81924716D01*
X96184504Y-81897728D01*
X96228578Y-81879184D01*
X96274577Y-81869084D01*
X96321366Y-81867428D01*
X96367811Y-81874217D01*
G37*
G36*
X89368505Y-84702332D02*
G01*
X89409656Y-84707844D01*
X89448524Y-84716491D01*
X89468153Y-84722348D01*
X89494347Y-84731036D01*
X89522874Y-84741199D01*
X89552082Y-84752182D01*
X89580315Y-84763329D01*
X89605919Y-84773985D01*
X89627240Y-84783495D01*
X89642622Y-84791204D01*
X89650413Y-84796455D01*
X89653814Y-84801119D01*
X89657408Y-84812274D01*
X89657313Y-84827858D01*
X89653443Y-84849367D01*
X89645713Y-84878301D01*
X89642191Y-84890745D01*
X89636176Y-84912680D01*
X89628421Y-84941421D01*
X89619303Y-84975556D01*
X89609197Y-85013673D01*
X89598482Y-85054362D01*
X89587534Y-85096209D01*
X89587223Y-85097402D01*
X89576699Y-85137303D01*
X89566706Y-85174365D01*
X89557557Y-85207485D01*
X89549566Y-85235560D01*
X89543047Y-85257489D01*
X89538312Y-85272169D01*
X89535675Y-85278499D01*
X89533010Y-85280764D01*
X89523329Y-85283607D01*
X89507604Y-85283613D01*
X89485038Y-85280696D01*
X89454839Y-85274772D01*
X89416210Y-85265755D01*
X89375955Y-85255391D01*
X89306342Y-85234735D01*
X89244025Y-85212267D01*
X89187428Y-85187448D01*
X89185469Y-85186502D01*
X89160080Y-85173841D01*
X89141127Y-85163217D01*
X89126209Y-85152996D01*
X89112926Y-85141547D01*
X89098876Y-85127238D01*
X89085049Y-85111597D01*
X89066599Y-85085471D01*
X89054811Y-85058786D01*
X89048576Y-85028672D01*
X89046788Y-84992262D01*
X89047853Y-84964617D01*
X89056239Y-84910970D01*
X89072596Y-84861903D01*
X89096479Y-84818018D01*
X89127441Y-84779917D01*
X89165037Y-84748202D01*
X89208822Y-84723475D01*
X89258350Y-84706338D01*
X89259335Y-84706094D01*
X89290546Y-84701307D01*
X89327869Y-84700103D01*
X89368505Y-84702332D01*
G37*
G36*
X90412426Y-84762682D02*
G01*
X90418292Y-84763426D01*
X90471892Y-84771844D01*
X90528101Y-84783256D01*
X90584449Y-84797014D01*
X90638461Y-84812469D01*
X90687666Y-84828972D01*
X90729590Y-84845875D01*
X90751765Y-84856891D01*
X90786778Y-84878111D01*
X90820509Y-84902827D01*
X90851393Y-84929638D01*
X90877867Y-84957143D01*
X90898367Y-84983942D01*
X90911327Y-85008633D01*
X90924018Y-85054336D01*
X90928818Y-85102834D01*
X90925146Y-85150608D01*
X90912984Y-85195634D01*
X90896342Y-85230735D01*
X90869582Y-85268956D01*
X90834864Y-85303987D01*
X90792003Y-85335920D01*
X90740814Y-85364843D01*
X90681112Y-85390847D01*
X90612712Y-85414022D01*
X90535428Y-85434458D01*
X90449077Y-85452244D01*
X90353472Y-85467470D01*
X90335756Y-85469944D01*
X90313756Y-85473031D01*
X90295992Y-85475541D01*
X90285179Y-85477090D01*
X90278561Y-85477583D01*
X90262769Y-85477994D01*
X90240650Y-85478133D01*
X90214141Y-85477992D01*
X90185179Y-85477562D01*
X90173865Y-85477303D01*
X90125870Y-85475091D01*
X90083845Y-85470860D01*
X90044753Y-85464112D01*
X90005559Y-85454347D01*
X89963228Y-85441066D01*
X89952204Y-85437257D01*
X89915318Y-85423414D01*
X89880697Y-85408814D01*
X89849760Y-85394162D01*
X89823926Y-85380159D01*
X89804613Y-85367507D01*
X89793240Y-85356909D01*
X89783294Y-85343507D01*
X89809229Y-85256909D01*
X89815650Y-85235745D01*
X89826309Y-85201306D01*
X89838701Y-85161848D01*
X89852060Y-85119792D01*
X89865623Y-85077555D01*
X89878622Y-85037557D01*
X89879330Y-85035394D01*
X89893599Y-84992323D01*
X89905651Y-84957422D01*
X89916065Y-84929568D01*
X89925416Y-84907643D01*
X89934284Y-84890527D01*
X89943245Y-84877098D01*
X89952876Y-84866237D01*
X89963755Y-84856824D01*
X89976459Y-84847739D01*
X90005708Y-84830885D01*
X90047057Y-84812915D01*
X90094717Y-84796942D01*
X90146888Y-84783316D01*
X90201770Y-84772389D01*
X90257565Y-84764510D01*
X90312471Y-84760032D01*
X90364692Y-84759306D01*
X90412426Y-84762682D01*
G37*
G36*
X93564180Y-83549517D02*
G01*
X93554839Y-83648751D01*
X93536308Y-83746017D01*
X93508739Y-83840826D01*
X93472284Y-83932688D01*
X93427092Y-84021116D01*
X93373316Y-84105621D01*
X93311105Y-84185712D01*
X93240612Y-84260902D01*
X93183768Y-84312528D01*
X93103143Y-84374496D01*
X93017696Y-84428021D01*
X92927618Y-84473009D01*
X92833101Y-84509367D01*
X92734338Y-84537003D01*
X92631520Y-84555823D01*
X92627841Y-84556302D01*
X92598408Y-84558890D01*
X92562041Y-84560476D01*
X92521121Y-84561098D01*
X92478026Y-84560794D01*
X92435139Y-84559600D01*
X92394838Y-84557556D01*
X92359505Y-84554698D01*
X92331520Y-84551064D01*
X92279776Y-84541000D01*
X92180304Y-84514353D01*
X92084796Y-84478937D01*
X91993670Y-84435018D01*
X91907341Y-84382860D01*
X91826225Y-84322729D01*
X91750739Y-84254888D01*
X91681298Y-84179604D01*
X91618318Y-84097140D01*
X91608741Y-84083071D01*
X91558318Y-83998987D01*
X91516204Y-83910463D01*
X91482540Y-83818291D01*
X91457464Y-83723264D01*
X91441118Y-83626175D01*
X91433640Y-83527816D01*
X91434550Y-83469065D01*
X91927383Y-83469065D01*
X91928394Y-83541303D01*
X91938044Y-83612891D01*
X91956422Y-83682484D01*
X91961087Y-83695863D01*
X91990161Y-83761998D01*
X92027315Y-83823404D01*
X92071865Y-83879477D01*
X92123127Y-83929611D01*
X92180419Y-83973204D01*
X92243057Y-84009650D01*
X92310359Y-84038345D01*
X92381641Y-84058684D01*
X92401249Y-84061937D01*
X92429987Y-84064892D01*
X92463065Y-84067005D01*
X92497681Y-84068186D01*
X92531034Y-84068342D01*
X92560321Y-84067384D01*
X92582740Y-84065221D01*
X92592971Y-84063515D01*
X92653540Y-84048940D01*
X92714955Y-84027122D01*
X92774154Y-83999289D01*
X92828077Y-83966672D01*
X92882615Y-83923631D01*
X92932275Y-83872790D01*
X92975098Y-83816168D01*
X93010677Y-83754719D01*
X93038605Y-83689399D01*
X93058477Y-83621162D01*
X93069886Y-83550963D01*
X93072425Y-83479757D01*
X93065688Y-83408498D01*
X93055669Y-83359715D01*
X93033312Y-83289292D01*
X93002699Y-83223143D01*
X92964364Y-83161890D01*
X92918837Y-83106158D01*
X92866652Y-83056571D01*
X92808340Y-83013753D01*
X92744434Y-82978327D01*
X92675465Y-82950918D01*
X92620288Y-82936304D01*
X92550206Y-82926236D01*
X92478672Y-82924617D01*
X92407397Y-82931368D01*
X92338092Y-82946409D01*
X92272468Y-82969660D01*
X92233532Y-82988450D01*
X92172834Y-83025950D01*
X92116454Y-83071029D01*
X92065642Y-83122508D01*
X92021648Y-83179210D01*
X91985721Y-83239957D01*
X91975294Y-83261918D01*
X91950922Y-83328026D01*
X91934922Y-83397523D01*
X91927383Y-83469065D01*
X91434550Y-83469065D01*
X91435171Y-83428979D01*
X91445851Y-83330458D01*
X91465819Y-83233044D01*
X91467169Y-83227814D01*
X91496876Y-83132783D01*
X91535150Y-83041674D01*
X91581480Y-82954974D01*
X91635359Y-82873172D01*
X91696279Y-82796755D01*
X91763731Y-82726212D01*
X91837208Y-82662031D01*
X91916200Y-82604701D01*
X92000201Y-82554709D01*
X92088700Y-82512544D01*
X92181191Y-82478694D01*
X92277165Y-82453647D01*
X92289336Y-82451165D01*
X92389270Y-82436251D01*
X92489679Y-82430800D01*
X92589815Y-82434716D01*
X92688930Y-82447904D01*
X92786275Y-82470269D01*
X92881100Y-82501716D01*
X92972658Y-82542149D01*
X93042128Y-82580246D01*
X93125091Y-82635243D01*
X93202339Y-82697378D01*
X93273401Y-82766041D01*
X93337804Y-82840621D01*
X93395075Y-82920505D01*
X93444742Y-83005083D01*
X93486333Y-83093742D01*
X93519376Y-83185872D01*
X93543397Y-83280860D01*
X93554692Y-83347099D01*
X93564182Y-83448803D01*
X93564181Y-83479757D01*
X93564180Y-83549517D01*
G37*
G36*
X79979299Y-81569785D02*
G01*
X80022263Y-81583298D01*
X80062141Y-81604449D01*
X80097834Y-81632505D01*
X80128240Y-81666736D01*
X80152260Y-81706411D01*
X80168792Y-81750798D01*
X80169163Y-81752577D01*
X80169826Y-81758030D01*
X80170442Y-81766497D01*
X80171013Y-81778299D01*
X80171540Y-81793757D01*
X80172025Y-81813192D01*
X80172469Y-81836926D01*
X80172874Y-81865278D01*
X80173241Y-81898571D01*
X80173573Y-81937125D01*
X80173871Y-81981261D01*
X80174136Y-82031301D01*
X80174371Y-82087566D01*
X80174576Y-82150375D01*
X80174753Y-82220052D01*
X80174904Y-82296916D01*
X80175030Y-82381289D01*
X80175134Y-82473492D01*
X80175216Y-82573845D01*
X80175279Y-82682670D01*
X80175324Y-82800289D01*
X80175352Y-82927021D01*
X80175365Y-83063188D01*
X80175369Y-83126232D01*
X80175384Y-83256014D01*
X80175400Y-83376555D01*
X80175412Y-83488210D01*
X80175410Y-83591329D01*
X80175389Y-83686268D01*
X80175341Y-83773378D01*
X80175259Y-83853013D01*
X80175136Y-83925526D01*
X80174963Y-83991270D01*
X80174735Y-84050597D01*
X80174443Y-84103861D01*
X80174082Y-84151415D01*
X80173642Y-84193611D01*
X80173118Y-84230803D01*
X80172501Y-84263344D01*
X80171785Y-84291587D01*
X80170963Y-84315885D01*
X80170027Y-84336590D01*
X80168969Y-84354057D01*
X80167784Y-84368637D01*
X80166462Y-84380684D01*
X80164998Y-84390550D01*
X80163384Y-84398590D01*
X80161613Y-84405155D01*
X80159678Y-84410600D01*
X80157570Y-84415276D01*
X80155284Y-84419537D01*
X80152811Y-84423736D01*
X80150145Y-84428226D01*
X80147279Y-84433360D01*
X80146811Y-84434226D01*
X80132625Y-84455344D01*
X80112773Y-84478615D01*
X80089897Y-84501396D01*
X80066640Y-84521047D01*
X80045644Y-84534928D01*
X80036652Y-84539378D01*
X80014876Y-84548490D01*
X79994425Y-84555274D01*
X79988600Y-84556141D01*
X79972661Y-84557259D01*
X79948225Y-84558288D01*
X79916022Y-84559226D01*
X79876780Y-84560074D01*
X79831231Y-84560831D01*
X79780102Y-84561497D01*
X79724125Y-84562072D01*
X79664029Y-84562556D01*
X79600543Y-84562948D01*
X79534397Y-84563250D01*
X79466322Y-84563459D01*
X79397045Y-84563578D01*
X79327299Y-84563604D01*
X79257811Y-84563538D01*
X79189312Y-84563380D01*
X79122531Y-84563130D01*
X79058199Y-84562788D01*
X78997044Y-84562353D01*
X78939797Y-84561825D01*
X78887187Y-84561204D01*
X78839944Y-84560491D01*
X78798797Y-84559684D01*
X78764477Y-84558785D01*
X78737713Y-84557791D01*
X78719235Y-84556705D01*
X78709772Y-84555524D01*
X78683753Y-84547071D01*
X78641728Y-84525654D01*
X78604230Y-84496395D01*
X78572401Y-84460259D01*
X78547382Y-84418211D01*
X78540242Y-84402683D01*
X78534227Y-84387016D01*
X78530611Y-84372054D01*
X78528601Y-84354309D01*
X78527404Y-84330296D01*
X78526903Y-84306269D01*
X78527801Y-84284915D01*
X78530608Y-84266423D01*
X78535685Y-84247166D01*
X78549749Y-84211231D01*
X78574832Y-84170223D01*
X78607418Y-84134674D01*
X78646727Y-84105402D01*
X78691978Y-84083227D01*
X78692542Y-84083011D01*
X78697138Y-84081314D01*
X78701902Y-84079814D01*
X78707432Y-84078496D01*
X78714329Y-84077347D01*
X78723191Y-84076352D01*
X78734617Y-84075497D01*
X78749208Y-84074770D01*
X78767561Y-84074155D01*
X78790278Y-84073639D01*
X78817956Y-84073208D01*
X78851195Y-84072848D01*
X78890595Y-84072545D01*
X78936754Y-84072285D01*
X78990272Y-84072055D01*
X79051748Y-84071839D01*
X79121782Y-84071625D01*
X79200973Y-84071399D01*
X79682620Y-84070037D01*
X79683900Y-82915296D01*
X79685179Y-81760554D01*
X79696176Y-81731680D01*
X79706497Y-81708076D01*
X79732289Y-81666337D01*
X79764869Y-81630592D01*
X79803225Y-81601685D01*
X79846345Y-81580457D01*
X79893215Y-81567750D01*
X79934352Y-81564639D01*
X79979299Y-81569785D01*
G37*
G36*
X95207332Y-82434178D02*
G01*
X95226660Y-82437451D01*
X95244680Y-82443202D01*
X95265837Y-82452536D01*
X95298346Y-82471115D01*
X95335884Y-82501915D01*
X95367230Y-82539054D01*
X95391284Y-82581172D01*
X95406947Y-82626911D01*
X95407275Y-82628808D01*
X95408256Y-82640954D01*
X95409173Y-82662035D01*
X95410025Y-82691430D01*
X95410813Y-82728515D01*
X95411537Y-82772670D01*
X95412196Y-82823272D01*
X95412790Y-82879698D01*
X95413319Y-82941328D01*
X95413783Y-83007539D01*
X95414183Y-83077708D01*
X95414516Y-83151215D01*
X95414785Y-83227437D01*
X95414988Y-83305752D01*
X95415125Y-83385538D01*
X95415196Y-83466173D01*
X95415202Y-83547035D01*
X95415141Y-83627502D01*
X95415015Y-83706952D01*
X95414822Y-83784763D01*
X95414562Y-83860313D01*
X95414237Y-83932980D01*
X95413844Y-84002142D01*
X95413385Y-84067178D01*
X95412859Y-84127464D01*
X95412266Y-84182379D01*
X95411605Y-84231301D01*
X95410878Y-84273609D01*
X95410083Y-84308679D01*
X95409221Y-84335891D01*
X95408291Y-84354621D01*
X95407293Y-84364248D01*
X95395094Y-84404051D01*
X95373714Y-84445635D01*
X95345315Y-84482900D01*
X95311097Y-84514549D01*
X95272257Y-84539288D01*
X95229994Y-84555824D01*
X95219357Y-84558178D01*
X95193361Y-84561268D01*
X95164066Y-84562267D01*
X95135613Y-84561109D01*
X95112144Y-84557728D01*
X95076403Y-84546101D01*
X95036152Y-84524453D01*
X94999914Y-84495651D01*
X94969085Y-84461052D01*
X94945062Y-84422015D01*
X94929242Y-84379896D01*
X94929011Y-84378978D01*
X94927824Y-84373067D01*
X94926771Y-84365268D01*
X94925844Y-84355019D01*
X94925036Y-84341757D01*
X94924338Y-84324922D01*
X94923742Y-84303951D01*
X94923242Y-84278282D01*
X94922829Y-84247353D01*
X94922495Y-84210601D01*
X94922233Y-84167466D01*
X94922035Y-84117385D01*
X94921892Y-84059795D01*
X94921798Y-83994136D01*
X94921745Y-83919844D01*
X94921724Y-83836359D01*
X94921690Y-83770150D01*
X94921562Y-83689033D01*
X94921341Y-83613871D01*
X94921033Y-83545085D01*
X94920640Y-83483100D01*
X94920168Y-83428336D01*
X94919618Y-83381216D01*
X94918996Y-83342163D01*
X94918304Y-83311599D01*
X94917547Y-83289947D01*
X94916729Y-83277627D01*
X94914072Y-83256918D01*
X94903581Y-83203718D01*
X94888311Y-83157579D01*
X94867754Y-83117174D01*
X94841399Y-83081175D01*
X94817587Y-83055421D01*
X94770583Y-83014559D01*
X94719879Y-82982534D01*
X94665770Y-82959551D01*
X94636876Y-82952131D01*
X94594495Y-82946559D01*
X94549543Y-82945531D01*
X94505455Y-82949087D01*
X94465667Y-82957267D01*
X94440745Y-82965148D01*
X94398122Y-82982438D01*
X94356876Y-83004592D01*
X94315530Y-83032551D01*
X94272603Y-83067260D01*
X94226616Y-83109661D01*
X94216673Y-83119189D01*
X94183590Y-83148737D01*
X94153617Y-83171315D01*
X94124968Y-83187832D01*
X94095853Y-83199196D01*
X94064487Y-83206316D01*
X94029081Y-83210102D01*
X93997849Y-83210611D01*
X93949326Y-83205007D01*
X93905233Y-83191799D01*
X93866262Y-83171484D01*
X93833107Y-83144554D01*
X93806458Y-83111505D01*
X93787009Y-83072829D01*
X93775451Y-83029023D01*
X93772656Y-82986561D01*
X93777644Y-82938334D01*
X93790454Y-82889024D01*
X93810630Y-82840349D01*
X93837716Y-82794031D01*
X93851456Y-82774988D01*
X93894056Y-82725907D01*
X93944100Y-82680144D01*
X94000033Y-82638775D01*
X94060300Y-82602877D01*
X94123346Y-82573525D01*
X94187618Y-82551796D01*
X94190432Y-82551038D01*
X94246286Y-82539271D01*
X94307748Y-82531754D01*
X94371733Y-82528640D01*
X94435157Y-82530088D01*
X94494935Y-82536252D01*
X94515508Y-82539615D01*
X94599422Y-82558484D01*
X94684288Y-82585447D01*
X94767942Y-82619742D01*
X94848221Y-82660607D01*
X94874074Y-82674225D01*
X94893409Y-82682134D01*
X94905794Y-82684047D01*
X94907015Y-82683899D01*
X94912841Y-82682548D01*
X94916802Y-82679025D01*
X94919665Y-82671453D01*
X94922198Y-82657954D01*
X94925169Y-82636652D01*
X94931532Y-82601888D01*
X94944226Y-82563682D01*
X94962954Y-82530477D01*
X94988699Y-82500157D01*
X95003281Y-82486718D01*
X95041500Y-82460540D01*
X95084476Y-82442794D01*
X95132329Y-82433440D01*
X95185175Y-82432436D01*
X95207332Y-82434178D01*
G37*
G36*
X85586282Y-82432451D02*
G01*
X85603907Y-82435234D01*
X85622715Y-82440255D01*
X85663059Y-82456426D01*
X85703727Y-82482225D01*
X85738614Y-82515319D01*
X85766906Y-82554917D01*
X85787788Y-82600232D01*
X85799607Y-82633725D01*
X85799584Y-83494701D01*
X85799561Y-84355676D01*
X85788656Y-84387666D01*
X85785643Y-84396099D01*
X85764008Y-84441654D01*
X85735769Y-84481079D01*
X85701665Y-84513643D01*
X85662433Y-84538618D01*
X85618815Y-84555274D01*
X85600916Y-84559044D01*
X85565230Y-84562258D01*
X85528367Y-84561088D01*
X85495138Y-84555524D01*
X85484989Y-84552631D01*
X85441495Y-84534261D01*
X85402065Y-84507887D01*
X85367933Y-84474660D01*
X85340331Y-84435734D01*
X85320494Y-84392262D01*
X85309629Y-84360554D01*
X85307160Y-83838603D01*
X85304691Y-83316652D01*
X85290995Y-83277627D01*
X85290909Y-83277383D01*
X85281267Y-83253092D01*
X85269195Y-83226908D01*
X85257285Y-83204457D01*
X85238675Y-83176809D01*
X85204593Y-83138127D01*
X85162715Y-83100982D01*
X85114188Y-83066038D01*
X85060162Y-83033957D01*
X85001783Y-83005400D01*
X84940199Y-82981031D01*
X84876558Y-82961512D01*
X84812008Y-82947505D01*
X84805976Y-82946522D01*
X84765046Y-82941815D01*
X84720021Y-82939459D01*
X84673626Y-82939401D01*
X84628586Y-82941589D01*
X84587627Y-82945969D01*
X84553472Y-82952491D01*
X84520718Y-82961873D01*
X84460828Y-82985511D01*
X84408045Y-83015647D01*
X84362518Y-83052125D01*
X84324399Y-83094790D01*
X84293840Y-83143486D01*
X84270992Y-83198058D01*
X84256006Y-83258349D01*
X84254964Y-83265145D01*
X84253874Y-83274728D01*
X84252911Y-83286639D01*
X84252069Y-83301447D01*
X84251340Y-83319725D01*
X84250716Y-83342044D01*
X84250190Y-83368976D01*
X84249754Y-83401092D01*
X84249401Y-83438963D01*
X84249123Y-83483162D01*
X84248912Y-83534259D01*
X84248761Y-83592827D01*
X84248663Y-83659436D01*
X84248610Y-83734658D01*
X84248594Y-83819064D01*
X84248568Y-83883857D01*
X84248453Y-83966484D01*
X84248249Y-84042274D01*
X84247957Y-84110903D01*
X84247581Y-84172046D01*
X84247124Y-84225379D01*
X84246588Y-84270578D01*
X84245977Y-84307319D01*
X84245294Y-84335277D01*
X84244541Y-84354128D01*
X84243721Y-84363547D01*
X84236730Y-84389706D01*
X84220863Y-84426271D01*
X84199214Y-84461356D01*
X84173541Y-84491748D01*
X84157137Y-84506748D01*
X84117645Y-84533866D01*
X84074772Y-84552253D01*
X84029467Y-84561765D01*
X83982679Y-84562256D01*
X83935355Y-84553579D01*
X83888445Y-84535589D01*
X83884667Y-84533677D01*
X83852076Y-84511915D01*
X83821818Y-84482797D01*
X83795560Y-84448467D01*
X83774971Y-84411070D01*
X83761721Y-84372749D01*
X83761310Y-84370173D01*
X83760379Y-84357350D01*
X83759530Y-84335127D01*
X83758762Y-84303466D01*
X83758076Y-84262325D01*
X83757469Y-84211666D01*
X83756942Y-84151450D01*
X83756495Y-84081636D01*
X83756127Y-84002185D01*
X83755838Y-83913057D01*
X83755627Y-83814213D01*
X83755589Y-83791475D01*
X83755450Y-83706554D01*
X83755352Y-83630617D01*
X83755320Y-83563047D01*
X83755381Y-83503225D01*
X83755560Y-83450534D01*
X83755885Y-83404357D01*
X83756380Y-83364075D01*
X83757071Y-83329072D01*
X83757986Y-83298730D01*
X83759150Y-83272430D01*
X83760590Y-83249556D01*
X83762330Y-83229490D01*
X83764398Y-83211614D01*
X83766820Y-83195311D01*
X83769621Y-83179963D01*
X83772828Y-83164953D01*
X83776467Y-83149662D01*
X83780564Y-83133473D01*
X83785145Y-83115770D01*
X83785264Y-83115310D01*
X83812157Y-83029536D01*
X83846680Y-82949749D01*
X83888624Y-82876129D01*
X83937778Y-82808856D01*
X83993935Y-82748109D01*
X84056884Y-82694069D01*
X84126415Y-82646914D01*
X84202320Y-82606826D01*
X84284390Y-82573983D01*
X84372414Y-82548566D01*
X84466184Y-82530755D01*
X84477393Y-82529267D01*
X84520733Y-82525295D01*
X84569797Y-82523011D01*
X84621581Y-82522416D01*
X84673083Y-82523510D01*
X84721300Y-82526292D01*
X84763228Y-82530763D01*
X84835477Y-82543209D01*
X84922864Y-82564356D01*
X85007357Y-82591434D01*
X85087418Y-82623877D01*
X85161510Y-82661114D01*
X85228096Y-82702579D01*
X85241999Y-82711501D01*
X85265249Y-82721990D01*
X85284074Y-82723793D01*
X85298507Y-82716901D01*
X85308577Y-82701306D01*
X85314315Y-82676998D01*
X85321208Y-82637015D01*
X85336344Y-82586239D01*
X85357599Y-82541613D01*
X85384591Y-82503750D01*
X85416941Y-82473264D01*
X85454270Y-82450769D01*
X85463598Y-82446577D01*
X85480212Y-82440137D01*
X85496035Y-82436114D01*
X85514582Y-82433744D01*
X85539369Y-82432262D01*
X85540227Y-82432224D01*
X85566251Y-82431562D01*
X85586282Y-82432451D01*
G37*
G36*
X91059687Y-83511926D02*
G01*
X91058472Y-83560637D01*
X91055693Y-83605443D01*
X91051349Y-83643481D01*
X91034983Y-83729922D01*
X91007600Y-83828922D01*
X90971664Y-83923245D01*
X90927128Y-84012986D01*
X90873941Y-84098242D01*
X90812058Y-84179107D01*
X90741428Y-84255676D01*
X90733402Y-84263556D01*
X90658406Y-84329673D01*
X90577496Y-84388389D01*
X90491464Y-84439321D01*
X90401105Y-84482089D01*
X90307213Y-84516311D01*
X90210583Y-84541608D01*
X90112008Y-84557597D01*
X90078696Y-84560301D01*
X90037225Y-84561845D01*
X89991979Y-84562097D01*
X89945973Y-84561086D01*
X89902219Y-84558837D01*
X89863730Y-84555378D01*
X89799887Y-84545890D01*
X89703781Y-84523684D01*
X89610555Y-84492603D01*
X89520807Y-84453066D01*
X89435132Y-84405495D01*
X89354129Y-84350310D01*
X89278393Y-84287931D01*
X89208522Y-84218780D01*
X89145111Y-84143276D01*
X89088759Y-84061840D01*
X89040061Y-83974894D01*
X89017285Y-83926210D01*
X88981299Y-83832138D01*
X88954498Y-83735813D01*
X88936894Y-83637896D01*
X88928497Y-83539049D01*
X88928768Y-83506303D01*
X89422489Y-83506303D01*
X89423753Y-83545001D01*
X89426651Y-83580198D01*
X89431177Y-83608952D01*
X89441305Y-83649103D01*
X89466354Y-83719591D01*
X89499232Y-83785185D01*
X89539389Y-83845354D01*
X89586276Y-83899569D01*
X89639341Y-83947299D01*
X89698035Y-83988015D01*
X89761808Y-84021187D01*
X89830108Y-84046284D01*
X89902386Y-84062778D01*
X89917013Y-84064960D01*
X89990494Y-84070249D01*
X90062780Y-84066244D01*
X90133142Y-84053327D01*
X90200849Y-84031878D01*
X90265170Y-84002278D01*
X90325375Y-83964910D01*
X90380734Y-83920154D01*
X90430516Y-83868392D01*
X90473991Y-83810005D01*
X90510428Y-83745374D01*
X90525461Y-83711398D01*
X90548276Y-83642473D01*
X90562342Y-83571218D01*
X90567520Y-83498955D01*
X90563675Y-83427005D01*
X90550669Y-83356690D01*
X90535591Y-83306880D01*
X90507427Y-83240391D01*
X90472005Y-83179316D01*
X90430029Y-83123974D01*
X90382200Y-83074685D01*
X90329220Y-83031770D01*
X90271791Y-82995549D01*
X90210614Y-82966342D01*
X90146391Y-82944469D01*
X90079824Y-82930251D01*
X90011616Y-82924008D01*
X89942467Y-82926059D01*
X89873080Y-82936726D01*
X89804157Y-82956327D01*
X89736398Y-82985185D01*
X89735939Y-82985416D01*
X89671155Y-83023247D01*
X89613030Y-83068108D01*
X89561809Y-83119680D01*
X89517731Y-83177644D01*
X89481040Y-83241684D01*
X89451977Y-83311480D01*
X89430785Y-83386715D01*
X89428547Y-83398614D01*
X89424881Y-83430168D01*
X89422863Y-83467045D01*
X89422489Y-83506303D01*
X88928768Y-83506303D01*
X88929318Y-83439931D01*
X88939367Y-83341205D01*
X88958656Y-83243530D01*
X88987196Y-83147568D01*
X89024997Y-83053981D01*
X89029532Y-83044004D01*
X89037328Y-83025354D01*
X89041606Y-83011360D01*
X89043089Y-82999229D01*
X89042496Y-82986165D01*
X89042106Y-82982286D01*
X89040863Y-82974176D01*
X89038413Y-82966830D01*
X89033784Y-82958993D01*
X89026009Y-82949408D01*
X89014116Y-82936821D01*
X88997137Y-82919975D01*
X88974102Y-82897616D01*
X88965646Y-82889401D01*
X88941744Y-82865611D01*
X88923688Y-82846460D01*
X88910309Y-82830591D01*
X88900441Y-82816647D01*
X88892916Y-82803271D01*
X88879622Y-82772385D01*
X88866840Y-82724230D01*
X88863423Y-82676387D01*
X88869240Y-82629671D01*
X88884159Y-82584899D01*
X88908050Y-82542889D01*
X88940783Y-82504457D01*
X88944077Y-82501273D01*
X88982619Y-82470252D01*
X89023778Y-82448474D01*
X89068338Y-82435613D01*
X89117081Y-82431344D01*
X89130598Y-82431555D01*
X89163877Y-82434625D01*
X89194583Y-82441944D01*
X89224332Y-82454272D01*
X89254739Y-82472371D01*
X89287419Y-82497003D01*
X89323987Y-82528931D01*
X89340935Y-82544273D01*
X89365084Y-82564626D01*
X89385226Y-82578427D01*
X89403054Y-82586013D01*
X89420260Y-82587720D01*
X89438538Y-82583884D01*
X89459579Y-82574841D01*
X89485075Y-82560927D01*
X89489964Y-82558150D01*
X89546641Y-82529440D01*
X89610096Y-82502844D01*
X89677660Y-82479298D01*
X89746666Y-82459742D01*
X89814447Y-82445112D01*
X89826454Y-82443117D01*
X89871725Y-82437600D01*
X89922770Y-82433884D01*
X89976643Y-82432032D01*
X90030397Y-82432109D01*
X90081086Y-82434179D01*
X90125763Y-82438308D01*
X90157933Y-82442854D01*
X90256940Y-82462882D01*
X90351531Y-82491502D01*
X90442027Y-82528805D01*
X90499773Y-82558086D01*
X90586543Y-82610717D01*
X90667271Y-82670596D01*
X90741589Y-82737226D01*
X90809129Y-82810113D01*
X90869524Y-82888759D01*
X90922407Y-82972670D01*
X90967409Y-83061350D01*
X91004164Y-83154302D01*
X91032304Y-83251032D01*
X91051462Y-83351042D01*
X91053932Y-83370991D01*
X91057418Y-83414240D01*
X91059336Y-83462173D01*
X91059595Y-83498955D01*
X91059687Y-83511926D01*
G37*
G36*
X88555723Y-83524962D02*
G01*
X88548665Y-83621498D01*
X88532955Y-83716424D01*
X88508835Y-83809187D01*
X88476549Y-83899239D01*
X88436340Y-83986028D01*
X88388452Y-84069004D01*
X88333127Y-84147616D01*
X88270609Y-84221314D01*
X88201142Y-84289547D01*
X88124967Y-84351764D01*
X88042330Y-84407416D01*
X87953472Y-84455951D01*
X87899977Y-84480339D01*
X87810854Y-84513497D01*
X87718740Y-84538471D01*
X87621764Y-84555823D01*
X87618064Y-84556305D01*
X87588140Y-84558965D01*
X87551480Y-84560588D01*
X87510436Y-84561215D01*
X87467360Y-84560884D01*
X87424602Y-84559636D01*
X87384516Y-84557510D01*
X87349453Y-84554545D01*
X87321764Y-84550781D01*
X87281967Y-84542990D01*
X87181463Y-84516940D01*
X87085676Y-84482676D01*
X86994962Y-84440356D01*
X86909677Y-84390138D01*
X86830176Y-84332181D01*
X86817011Y-84321649D01*
X86802398Y-84310236D01*
X86792003Y-84302455D01*
X86787493Y-84299579D01*
X86786483Y-84302374D01*
X86785517Y-84312555D01*
X86785121Y-84327627D01*
X86781119Y-84365742D01*
X86768494Y-84407070D01*
X86748313Y-84446512D01*
X86721668Y-84482337D01*
X86689652Y-84512817D01*
X86653356Y-84536223D01*
X86637090Y-84543758D01*
X86591430Y-84558010D01*
X86544913Y-84563137D01*
X86498752Y-84559315D01*
X86454162Y-84546719D01*
X86412356Y-84525526D01*
X86374549Y-84495909D01*
X86346621Y-84465869D01*
X86322648Y-84430351D01*
X86305396Y-84391033D01*
X86294935Y-84360554D01*
X86293622Y-83513129D01*
X86293598Y-83497140D01*
X86919942Y-83497140D01*
X86919988Y-83521497D01*
X86920309Y-83549368D01*
X86921101Y-83571042D01*
X86922557Y-83588610D01*
X86924868Y-83604164D01*
X86928225Y-83619796D01*
X86932821Y-83637598D01*
X86948203Y-83686563D01*
X86977934Y-83755425D01*
X87015345Y-83818902D01*
X87059914Y-83876494D01*
X87111120Y-83927702D01*
X87168441Y-83972025D01*
X87231357Y-84008963D01*
X87299345Y-84038016D01*
X87371885Y-84058684D01*
X87391493Y-84061937D01*
X87420231Y-84064892D01*
X87453309Y-84067005D01*
X87487925Y-84068186D01*
X87521277Y-84068342D01*
X87550564Y-84067384D01*
X87572984Y-84065221D01*
X87589047Y-84062437D01*
X87648373Y-84047437D01*
X87707935Y-84025518D01*
X87765767Y-83997711D01*
X87819902Y-83965044D01*
X87868376Y-83928545D01*
X87909222Y-83889244D01*
X87950763Y-83837954D01*
X87990855Y-83774766D01*
X88022201Y-83708206D01*
X88044676Y-83638975D01*
X88058153Y-83567777D01*
X88062504Y-83495316D01*
X88057602Y-83422293D01*
X88043322Y-83349413D01*
X88019536Y-83277378D01*
X88005648Y-83245666D01*
X87970541Y-83183002D01*
X87927716Y-83125656D01*
X87877798Y-83074158D01*
X87821410Y-83029037D01*
X87759174Y-82990825D01*
X87691715Y-82960051D01*
X87619656Y-82937246D01*
X87604287Y-82933666D01*
X87587828Y-82930734D01*
X87570036Y-82928755D01*
X87548807Y-82927565D01*
X87522036Y-82926999D01*
X87487618Y-82926891D01*
X87469055Y-82926951D01*
X87440181Y-82927284D01*
X87417765Y-82928078D01*
X87399648Y-82929537D01*
X87383672Y-82931863D01*
X87367677Y-82935263D01*
X87349505Y-82939938D01*
X87308324Y-82952291D01*
X87246264Y-82976852D01*
X87189736Y-83007632D01*
X87136758Y-83045777D01*
X87085347Y-83092430D01*
X87055862Y-83123659D01*
X87014555Y-83175747D01*
X86981047Y-83230608D01*
X86954192Y-83290227D01*
X86932845Y-83356588D01*
X86929460Y-83369487D01*
X86925751Y-83385557D01*
X86923147Y-83400919D01*
X86921457Y-83417666D01*
X86920487Y-83437890D01*
X86920046Y-83463684D01*
X86919942Y-83497140D01*
X86293598Y-83497140D01*
X86293510Y-83438749D01*
X86293372Y-83336994D01*
X86293269Y-83244269D01*
X86293203Y-83160141D01*
X86293178Y-83084177D01*
X86293196Y-83015945D01*
X86293261Y-82955012D01*
X86293375Y-82900946D01*
X86293542Y-82853312D01*
X86293764Y-82811680D01*
X86294044Y-82775616D01*
X86294386Y-82744687D01*
X86294792Y-82718460D01*
X86295265Y-82696504D01*
X86295809Y-82678385D01*
X86296425Y-82663670D01*
X86297118Y-82651927D01*
X86297890Y-82642724D01*
X86298744Y-82635626D01*
X86299684Y-82630203D01*
X86301418Y-82622430D01*
X86317148Y-82576118D01*
X86340532Y-82534945D01*
X86370693Y-82499630D01*
X86406757Y-82470893D01*
X86447848Y-82449453D01*
X86493091Y-82436030D01*
X86541611Y-82431344D01*
X86583579Y-82435015D01*
X86627800Y-82447335D01*
X86668488Y-82467455D01*
X86704655Y-82494471D01*
X86735311Y-82527479D01*
X86759470Y-82565575D01*
X86776143Y-82607855D01*
X86784341Y-82653415D01*
X86787618Y-82695730D01*
X86821764Y-82667601D01*
X86852446Y-82643435D01*
X86928869Y-82591412D01*
X87011382Y-82545571D01*
X87098517Y-82506529D01*
X87188808Y-82474901D01*
X87280786Y-82451303D01*
X87372984Y-82436351D01*
X87384812Y-82435110D01*
X87449437Y-82431354D01*
X87518900Y-82431759D01*
X87589955Y-82436142D01*
X87659359Y-82444320D01*
X87723867Y-82456111D01*
X87733439Y-82458307D01*
X87795766Y-82475610D01*
X87861304Y-82498424D01*
X87926951Y-82525485D01*
X87989602Y-82555531D01*
X88046155Y-82587297D01*
X88077077Y-82607376D01*
X88128848Y-82645205D01*
X88181280Y-82688160D01*
X88231941Y-82734104D01*
X88278399Y-82780899D01*
X88318222Y-82826408D01*
X88339631Y-82853844D01*
X88393784Y-82932878D01*
X88441186Y-83016868D01*
X88480842Y-83103938D01*
X88511758Y-83192209D01*
X88522551Y-83231193D01*
X88542910Y-83329259D01*
X88553886Y-83427366D01*
X88555165Y-83495316D01*
X88555723Y-83524962D01*
G37*
G36*
X78418536Y-83492153D02*
G01*
X78414170Y-83592262D01*
X78400649Y-83690203D01*
X78378013Y-83786830D01*
X78346857Y-83879886D01*
X78307614Y-83968932D01*
X78260715Y-84053528D01*
X78206592Y-84133235D01*
X78145678Y-84207612D01*
X78078403Y-84276220D01*
X78005199Y-84338620D01*
X77926499Y-84394372D01*
X77842735Y-84443035D01*
X77754337Y-84484171D01*
X77661739Y-84517339D01*
X77565372Y-84542100D01*
X77465667Y-84558014D01*
X77450539Y-84559322D01*
X77419341Y-84560649D01*
X77382394Y-84561011D01*
X77342155Y-84560474D01*
X77301079Y-84559107D01*
X77261619Y-84556975D01*
X77226233Y-84554147D01*
X77197374Y-84550688D01*
X77164803Y-84545292D01*
X77076417Y-84525845D01*
X76991620Y-84500152D01*
X76911475Y-84468661D01*
X76837043Y-84431824D01*
X76769387Y-84390090D01*
X76709569Y-84343910D01*
X76690607Y-84328214D01*
X76674743Y-84317793D01*
X76663308Y-84314927D01*
X76655201Y-84319773D01*
X76649317Y-84332491D01*
X76644556Y-84353237D01*
X76640907Y-84370347D01*
X76624876Y-84417956D01*
X76601693Y-84459855D01*
X76572041Y-84495450D01*
X76536606Y-84524149D01*
X76496072Y-84545358D01*
X76451124Y-84558485D01*
X76402447Y-84562935D01*
X76400810Y-84562927D01*
X76353595Y-84557863D01*
X76309091Y-84544034D01*
X76268332Y-84522266D01*
X76232351Y-84493384D01*
X76202183Y-84458211D01*
X76178862Y-84417573D01*
X76163422Y-84372295D01*
X76162949Y-84370077D01*
X76162044Y-84364339D01*
X76161220Y-84356625D01*
X76160474Y-84346504D01*
X76159801Y-84333544D01*
X76159198Y-84317312D01*
X76158662Y-84297377D01*
X76158188Y-84273305D01*
X76157773Y-84244664D01*
X76157414Y-84211023D01*
X76157106Y-84171948D01*
X76156846Y-84127008D01*
X76156631Y-84075770D01*
X76156456Y-84017803D01*
X76156318Y-83952672D01*
X76156214Y-83879948D01*
X76156139Y-83799196D01*
X76156090Y-83709985D01*
X76156063Y-83611883D01*
X76156055Y-83504457D01*
X76156053Y-83466243D01*
X76779745Y-83466243D01*
X76780450Y-83538245D01*
X76790067Y-83609641D01*
X76808590Y-83679320D01*
X76836014Y-83746173D01*
X76853051Y-83778473D01*
X76893839Y-83840993D01*
X76941421Y-83896964D01*
X76995204Y-83945944D01*
X77054597Y-83987490D01*
X77119007Y-84021160D01*
X77187841Y-84046513D01*
X77260508Y-84063105D01*
X77282033Y-84065916D01*
X77320700Y-84068693D01*
X77362023Y-84069478D01*
X77401943Y-84068228D01*
X77436398Y-84064903D01*
X77449859Y-84062702D01*
X77499879Y-84050704D01*
X77552292Y-84032963D01*
X77604069Y-84010740D01*
X77652177Y-83985298D01*
X77693586Y-83957895D01*
X77729181Y-83928911D01*
X77782217Y-83875967D01*
X77827393Y-83817267D01*
X77864649Y-83752904D01*
X77893926Y-83682972D01*
X77915167Y-83607564D01*
X77917291Y-83596376D01*
X77921052Y-83564715D01*
X77923143Y-83527673D01*
X77923568Y-83488214D01*
X77922330Y-83449298D01*
X77919433Y-83413888D01*
X77914881Y-83384945D01*
X77907318Y-83353746D01*
X77883081Y-83281144D01*
X77850744Y-83213929D01*
X77810344Y-83152174D01*
X77761922Y-83095952D01*
X77759276Y-83093272D01*
X77704230Y-83044456D01*
X77644878Y-83003924D01*
X77582018Y-82971667D01*
X77516447Y-82947680D01*
X77448962Y-82931956D01*
X77380363Y-82924488D01*
X77311445Y-82925270D01*
X77243007Y-82934294D01*
X77175846Y-82951555D01*
X77110761Y-82977045D01*
X77048549Y-83010759D01*
X76990007Y-83052688D01*
X76935933Y-83102828D01*
X76934324Y-83104525D01*
X76903643Y-83139115D01*
X76878093Y-83173215D01*
X76855379Y-83210188D01*
X76833208Y-83253396D01*
X76831172Y-83257707D01*
X76805100Y-83324864D01*
X76787960Y-83394746D01*
X76779745Y-83466243D01*
X76156053Y-83466243D01*
X76156051Y-83430900D01*
X76156037Y-83329118D01*
X76156029Y-83236346D01*
X76156041Y-83152137D01*
X76156089Y-83076046D01*
X76156190Y-83007624D01*
X76156357Y-82946427D01*
X76156608Y-82892008D01*
X76156958Y-82843919D01*
X76157423Y-82801715D01*
X76158018Y-82764948D01*
X76158758Y-82733174D01*
X76159661Y-82705944D01*
X76160740Y-82682813D01*
X76162012Y-82663333D01*
X76163493Y-82647059D01*
X76165198Y-82633544D01*
X76167143Y-82622342D01*
X76169343Y-82613005D01*
X76171815Y-82605088D01*
X76174573Y-82598144D01*
X76177634Y-82591726D01*
X76181013Y-82585389D01*
X76184726Y-82578684D01*
X76188788Y-82571167D01*
X76206642Y-82541178D01*
X76237967Y-82502421D01*
X76274140Y-82471752D01*
X76314692Y-82449472D01*
X76359153Y-82435883D01*
X76407051Y-82431286D01*
X76409942Y-82431302D01*
X76457132Y-82436306D01*
X76500287Y-82449933D01*
X76538866Y-82471711D01*
X76572327Y-82501171D01*
X76600129Y-82537842D01*
X76621731Y-82581252D01*
X76636591Y-82630932D01*
X76637376Y-82634543D01*
X76643933Y-82660965D01*
X76650291Y-82678899D01*
X76656942Y-82689460D01*
X76664379Y-82693759D01*
X76669700Y-82692177D01*
X76681351Y-82685195D01*
X76697154Y-82673747D01*
X76715431Y-82658974D01*
X76783345Y-82606978D01*
X76861783Y-82558268D01*
X76945768Y-82516752D01*
X77034207Y-82483037D01*
X77041166Y-82480776D01*
X77120214Y-82458311D01*
X77196910Y-82442936D01*
X77274629Y-82434108D01*
X77356752Y-82431286D01*
X77417239Y-82432969D01*
X77517284Y-82443380D01*
X77615085Y-82463269D01*
X77710499Y-82492605D01*
X77803381Y-82531356D01*
X77825729Y-82542272D01*
X77913742Y-82591745D01*
X77995778Y-82648427D01*
X78071523Y-82711773D01*
X78140665Y-82781241D01*
X78202890Y-82856287D01*
X78257887Y-82936368D01*
X78305342Y-83020940D01*
X78344941Y-83109460D01*
X78376374Y-83201385D01*
X78399325Y-83296171D01*
X78413484Y-83393275D01*
X78418335Y-83488214D01*
X78418536Y-83492153D01*
G37*
G36*
X75711274Y-83555054D02*
G01*
X75711267Y-83661388D01*
X75711220Y-83759112D01*
X75711134Y-83848453D01*
X75711007Y-83929642D01*
X75710840Y-84002906D01*
X75710631Y-84068474D01*
X75710379Y-84126576D01*
X75710085Y-84177440D01*
X75709746Y-84221295D01*
X75709363Y-84258370D01*
X75708935Y-84288894D01*
X75708460Y-84313095D01*
X75707939Y-84331203D01*
X75707370Y-84343447D01*
X75706753Y-84350055D01*
X75703958Y-84364132D01*
X75689177Y-84408189D01*
X75666499Y-84449157D01*
X75637088Y-84485748D01*
X75602112Y-84516672D01*
X75562737Y-84540641D01*
X75520128Y-84556364D01*
X75508966Y-84558660D01*
X75478138Y-84561329D01*
X75444229Y-84560347D01*
X75411327Y-84555954D01*
X75383520Y-84548388D01*
X75378834Y-84546560D01*
X75339165Y-84526489D01*
X75303667Y-84499412D01*
X75271343Y-84464437D01*
X75241200Y-84420672D01*
X75239562Y-84418147D01*
X75230399Y-84407936D01*
X75221688Y-84403098D01*
X75221339Y-84403076D01*
X75213369Y-84405194D01*
X75198408Y-84411105D01*
X75177962Y-84420145D01*
X75153538Y-84431652D01*
X75126642Y-84444961D01*
X75100971Y-84457634D01*
X75056566Y-84478080D01*
X75014907Y-84495443D01*
X74978685Y-84508567D01*
X74945978Y-84518674D01*
X74846341Y-84542887D01*
X74746334Y-84557515D01*
X74646463Y-84562644D01*
X74547234Y-84558362D01*
X74449152Y-84544755D01*
X74352724Y-84521910D01*
X74258456Y-84489913D01*
X74166853Y-84448851D01*
X74078422Y-84398810D01*
X73993668Y-84339878D01*
X73959080Y-84312198D01*
X73885801Y-84244694D01*
X73819398Y-84170681D01*
X73760217Y-84090769D01*
X73708607Y-84005563D01*
X73664913Y-83915672D01*
X73629484Y-83821705D01*
X73602665Y-83724268D01*
X73584805Y-83623969D01*
X73582403Y-83600802D01*
X73580123Y-83561854D01*
X73579111Y-83518069D01*
X73579254Y-83489489D01*
X74072208Y-83489489D01*
X74073055Y-83529386D01*
X74075657Y-83566920D01*
X74079970Y-83598547D01*
X74094528Y-83658734D01*
X74119887Y-83727643D01*
X74153204Y-83791872D01*
X74193897Y-83850860D01*
X74241383Y-83904043D01*
X74295083Y-83950859D01*
X74354414Y-83990746D01*
X74418795Y-84023141D01*
X74487644Y-84047481D01*
X74560380Y-84063206D01*
X74629940Y-84069281D01*
X74702078Y-84066453D01*
X74772827Y-84054626D01*
X74841327Y-84034180D01*
X74906715Y-84005496D01*
X74968130Y-83968955D01*
X75024709Y-83924938D01*
X75075592Y-83873824D01*
X75119917Y-83815996D01*
X75157128Y-83751941D01*
X75185571Y-83684810D01*
X75205075Y-83615767D01*
X75215718Y-83545605D01*
X75217577Y-83475117D01*
X75210732Y-83405096D01*
X75195259Y-83336336D01*
X75171236Y-83269629D01*
X75138742Y-83205769D01*
X75097853Y-83145549D01*
X75048649Y-83089762D01*
X75000687Y-83046857D01*
X74940108Y-83004646D01*
X74874601Y-82970757D01*
X74804549Y-82945382D01*
X74730334Y-82928715D01*
X74706646Y-82925890D01*
X74666331Y-82924058D01*
X74622211Y-82924806D01*
X74577566Y-82927961D01*
X74535673Y-82933351D01*
X74499813Y-82940804D01*
X74490122Y-82943466D01*
X74420514Y-82968150D01*
X74355469Y-83001033D01*
X74295575Y-83041466D01*
X74241424Y-83088798D01*
X74193606Y-83142378D01*
X74152711Y-83201556D01*
X74119330Y-83265682D01*
X74094052Y-83334104D01*
X74077469Y-83406172D01*
X74075966Y-83416775D01*
X74073163Y-83450771D01*
X74072208Y-83489489D01*
X73579254Y-83489489D01*
X73579340Y-83472270D01*
X73580786Y-83427283D01*
X73583425Y-83385932D01*
X73587230Y-83351042D01*
X73605940Y-83252453D01*
X73634117Y-83154992D01*
X73671315Y-83061075D01*
X73717388Y-82971030D01*
X73772188Y-82885182D01*
X73835567Y-82803856D01*
X73896650Y-82738215D01*
X73971971Y-82670405D01*
X74052843Y-82610341D01*
X74138729Y-82558310D01*
X74229090Y-82514600D01*
X74323387Y-82479501D01*
X74421082Y-82453302D01*
X74521636Y-82436289D01*
X74538078Y-82434706D01*
X74568126Y-82432965D01*
X74603273Y-82431883D01*
X74641047Y-82431461D01*
X74678977Y-82431697D01*
X74714589Y-82432592D01*
X74745411Y-82434143D01*
X74768972Y-82436352D01*
X74834274Y-82446829D01*
X74930826Y-82469612D01*
X75023961Y-82500883D01*
X75115230Y-82541110D01*
X75133950Y-82550270D01*
X75156720Y-82561163D01*
X75175439Y-82569832D01*
X75188550Y-82575559D01*
X75194498Y-82577627D01*
X75200671Y-82575047D01*
X75209569Y-82567871D01*
X75209866Y-82567572D01*
X75211607Y-82565556D01*
X75213120Y-82562866D01*
X75214421Y-82558851D01*
X75215526Y-82552865D01*
X75216451Y-82544258D01*
X75217213Y-82532381D01*
X75217826Y-82516587D01*
X75218308Y-82496225D01*
X75218674Y-82470648D01*
X75218939Y-82439207D01*
X75219121Y-82401253D01*
X75219234Y-82356137D01*
X75219295Y-82303212D01*
X75219320Y-82241827D01*
X75219325Y-82171335D01*
X75219343Y-82104302D01*
X75219410Y-82040621D01*
X75219539Y-81985431D01*
X75219740Y-81938074D01*
X75220026Y-81897894D01*
X75220409Y-81864233D01*
X75220900Y-81836434D01*
X75221511Y-81813839D01*
X75222254Y-81795792D01*
X75223141Y-81781635D01*
X75224183Y-81770710D01*
X75225392Y-81762362D01*
X75226781Y-81755931D01*
X75229929Y-81744836D01*
X75248461Y-81699813D01*
X75274387Y-81659774D01*
X75306741Y-81625603D01*
X75344555Y-81598189D01*
X75386863Y-81578416D01*
X75432699Y-81567171D01*
X75442188Y-81566026D01*
X75488641Y-81566051D01*
X75533577Y-81575043D01*
X75575941Y-81592351D01*
X75614677Y-81617321D01*
X75648731Y-81649301D01*
X75677048Y-81687639D01*
X75698572Y-81731680D01*
X75709569Y-81760554D01*
X75710932Y-83038603D01*
X75710933Y-83039027D01*
X75711073Y-83182095D01*
X75711177Y-83315636D01*
X75711244Y-83439879D01*
X75711253Y-83475117D01*
X75711274Y-83555054D01*
G37*
G36*
X83422340Y-83304457D02*
G01*
X83424443Y-83319811D01*
X83428019Y-83358626D01*
X83430319Y-83403364D01*
X83431341Y-83451469D01*
X83431082Y-83500382D01*
X83429542Y-83547548D01*
X83426717Y-83590409D01*
X83422606Y-83626408D01*
X83420212Y-83641725D01*
X83398682Y-83745494D01*
X83368603Y-83845101D01*
X83330155Y-83940196D01*
X83283516Y-84030428D01*
X83228864Y-84115446D01*
X83166377Y-84194900D01*
X83096234Y-84268439D01*
X83077206Y-84286146D01*
X82998891Y-84350775D01*
X82915248Y-84407400D01*
X82826780Y-84455797D01*
X82733995Y-84495740D01*
X82637396Y-84527006D01*
X82537489Y-84549369D01*
X82434779Y-84562605D01*
X82400805Y-84565099D01*
X82365056Y-84566699D01*
X82330612Y-84566840D01*
X82293821Y-84565526D01*
X82251033Y-84562760D01*
X82219428Y-84560127D01*
X82107468Y-84545928D01*
X82001162Y-84524617D01*
X81900736Y-84496299D01*
X81806418Y-84461078D01*
X81718436Y-84419061D01*
X81637018Y-84370353D01*
X81562391Y-84315059D01*
X81494783Y-84253284D01*
X81434422Y-84185133D01*
X81398022Y-84134356D01*
X81370353Y-84084194D01*
X81352073Y-84035378D01*
X81343077Y-83987687D01*
X81342596Y-83981267D01*
X81344757Y-83942095D01*
X81355381Y-83905837D01*
X81373783Y-83873739D01*
X81399282Y-83847047D01*
X81431194Y-83827005D01*
X81455904Y-83817528D01*
X81481791Y-83812453D01*
X81508796Y-83812539D01*
X81537900Y-83818059D01*
X81570084Y-83829284D01*
X81606331Y-83846485D01*
X81647621Y-83869932D01*
X81694935Y-83899898D01*
X81740383Y-83929229D01*
X81800518Y-83965888D01*
X81855896Y-83996708D01*
X81907821Y-84022270D01*
X81957596Y-84043156D01*
X82006527Y-84059946D01*
X82055918Y-84073223D01*
X82107072Y-84083567D01*
X82108420Y-84083797D01*
X82140828Y-84087804D01*
X82180035Y-84090411D01*
X82223317Y-84091626D01*
X82267952Y-84091457D01*
X82311216Y-84089913D01*
X82350387Y-84087003D01*
X82382740Y-84082733D01*
X82456878Y-84065162D01*
X82527212Y-84039498D01*
X82592916Y-84006247D01*
X82653256Y-83965901D01*
X82707500Y-83918948D01*
X82754914Y-83865879D01*
X82794767Y-83807184D01*
X82807100Y-83784349D01*
X82819855Y-83757595D01*
X82831349Y-83730592D01*
X82840355Y-83706225D01*
X82845647Y-83687384D01*
X82845903Y-83686224D01*
X82847050Y-83682288D01*
X82848192Y-83678737D01*
X82848864Y-83675549D01*
X82848603Y-83672703D01*
X82846943Y-83670178D01*
X82843420Y-83667953D01*
X82837571Y-83666005D01*
X82828930Y-83664315D01*
X82817034Y-83662860D01*
X82801418Y-83661619D01*
X82781618Y-83660571D01*
X82757169Y-83659694D01*
X82727608Y-83658968D01*
X82692470Y-83658371D01*
X82651290Y-83657881D01*
X82603604Y-83657477D01*
X82548949Y-83657139D01*
X82486859Y-83656844D01*
X82416870Y-83656572D01*
X82338519Y-83656301D01*
X82251340Y-83656009D01*
X82154870Y-83655676D01*
X81470545Y-83653237D01*
X81441276Y-83641499D01*
X81409541Y-83626664D01*
X81367740Y-83598977D01*
X81333161Y-83565099D01*
X81306198Y-83525442D01*
X81287245Y-83480418D01*
X81287090Y-83479920D01*
X81280148Y-83445988D01*
X81277571Y-83404351D01*
X81279288Y-83355973D01*
X81285226Y-83301823D01*
X81295315Y-83242865D01*
X81302850Y-83209468D01*
X81853472Y-83209468D01*
X81853501Y-83210034D01*
X81857273Y-83218831D01*
X81865445Y-83229069D01*
X81877418Y-83241042D01*
X82350811Y-83241042D01*
X82416169Y-83241040D01*
X82487039Y-83241025D01*
X82549218Y-83240987D01*
X82603288Y-83240911D01*
X82649835Y-83240789D01*
X82689441Y-83240606D01*
X82722690Y-83240352D01*
X82750167Y-83240014D01*
X82772453Y-83239582D01*
X82790134Y-83239043D01*
X82803792Y-83238385D01*
X82814012Y-83237596D01*
X82821377Y-83236666D01*
X82826470Y-83235581D01*
X82829876Y-83234331D01*
X82832178Y-83232903D01*
X82833959Y-83231286D01*
X82840409Y-83222419D01*
X82843715Y-83211913D01*
X82842068Y-83202223D01*
X82835380Y-83183870D01*
X82824280Y-83160547D01*
X82809558Y-83133879D01*
X82792004Y-83105491D01*
X82789589Y-83101821D01*
X82748392Y-83048401D01*
X82700664Y-83002009D01*
X82646815Y-82962830D01*
X82587258Y-82931052D01*
X82522402Y-82906862D01*
X82452659Y-82890446D01*
X82378440Y-82881993D01*
X82300156Y-82881689D01*
X82264741Y-82884269D01*
X82195262Y-82895226D01*
X82131666Y-82913834D01*
X82073654Y-82940243D01*
X82020930Y-82974603D01*
X81973195Y-83017063D01*
X81930151Y-83067773D01*
X81925807Y-83073783D01*
X81912656Y-83093556D01*
X81898766Y-83116299D01*
X81885144Y-83140153D01*
X81872797Y-83163257D01*
X81862732Y-83183750D01*
X81855954Y-83199774D01*
X81853472Y-83209468D01*
X81302850Y-83209468D01*
X81309483Y-83180067D01*
X81316588Y-83153212D01*
X81348125Y-83057054D01*
X81387782Y-82965645D01*
X81435163Y-82879393D01*
X81489871Y-82798707D01*
X81551509Y-82723993D01*
X81619681Y-82655659D01*
X81693991Y-82594114D01*
X81774042Y-82539764D01*
X81859437Y-82493019D01*
X81949779Y-82454285D01*
X82044674Y-82423970D01*
X82073612Y-82416494D01*
X82113972Y-82407283D01*
X82152232Y-82400375D01*
X82190754Y-82395492D01*
X82231900Y-82392356D01*
X82278035Y-82390689D01*
X82331520Y-82390212D01*
X82362128Y-82390291D01*
X82396851Y-82390669D01*
X82425210Y-82391463D01*
X82449164Y-82392792D01*
X82470670Y-82394771D01*
X82491683Y-82397520D01*
X82514161Y-82401154D01*
X82590408Y-82416421D01*
X82673532Y-82438811D01*
X82752977Y-82466961D01*
X82831520Y-82501753D01*
X82860270Y-82516249D01*
X82948197Y-82567560D01*
X83029950Y-82626173D01*
X83105199Y-82691641D01*
X83173619Y-82763519D01*
X83234881Y-82841362D01*
X83288656Y-82924724D01*
X83334617Y-83013160D01*
X83372437Y-83106225D01*
X83401787Y-83203472D01*
X83403505Y-83211913D01*
X83422340Y-83304457D01*
G37*
G36*
X100279497Y-81602452D02*
G01*
X100323772Y-81603782D01*
X100365069Y-81606239D01*
X100400585Y-81609792D01*
X100441029Y-81615770D01*
X100534028Y-81635447D01*
X100623153Y-81662630D01*
X100707887Y-81696933D01*
X100787711Y-81737969D01*
X100862108Y-81785351D01*
X100930560Y-81838692D01*
X100992550Y-81897606D01*
X101047558Y-81961704D01*
X101095067Y-82030602D01*
X101134559Y-82103911D01*
X101165517Y-82181244D01*
X101168178Y-82189246D01*
X101179070Y-82223851D01*
X101187395Y-82254697D01*
X101193480Y-82284035D01*
X101197652Y-82314114D01*
X101200240Y-82347183D01*
X101201572Y-82385490D01*
X101201975Y-82431286D01*
X101201930Y-82463394D01*
X101201602Y-82494206D01*
X101200852Y-82518708D01*
X101199555Y-82538770D01*
X101197581Y-82556264D01*
X101194805Y-82573063D01*
X101191099Y-82591037D01*
X101185851Y-82613556D01*
X101159747Y-82700195D01*
X101125418Y-82782363D01*
X101083215Y-82859538D01*
X101033490Y-82931199D01*
X100976596Y-82996823D01*
X100912883Y-83055888D01*
X100842704Y-83107874D01*
X100813959Y-83125729D01*
X100764303Y-83152973D01*
X100709276Y-83179565D01*
X100651455Y-83204283D01*
X100593415Y-83225909D01*
X100577921Y-83231175D01*
X100559397Y-83237295D01*
X100540140Y-83243422D01*
X100519184Y-83249832D01*
X100495562Y-83256802D01*
X100468308Y-83264607D01*
X100436454Y-83273523D01*
X100399035Y-83283828D01*
X100355083Y-83295797D01*
X100303632Y-83309706D01*
X100243715Y-83325831D01*
X100228729Y-83329885D01*
X100150299Y-83352137D01*
X100080990Y-83373870D01*
X100020305Y-83395471D01*
X99967746Y-83417330D01*
X99922818Y-83439835D01*
X99885021Y-83463376D01*
X99853860Y-83488341D01*
X99828836Y-83515120D01*
X99809454Y-83544100D01*
X99795215Y-83575672D01*
X99785623Y-83610224D01*
X99780180Y-83648144D01*
X99778390Y-83689823D01*
X99778560Y-83709571D01*
X99780586Y-83744842D01*
X99785305Y-83774602D01*
X99793241Y-83801590D01*
X99804916Y-83828542D01*
X99827220Y-83866067D01*
X99861296Y-83906958D01*
X99902957Y-83943803D01*
X99951327Y-83976169D01*
X100005534Y-84003621D01*
X100064701Y-84025728D01*
X100127956Y-84042055D01*
X100194423Y-84052169D01*
X100263228Y-84055638D01*
X100328029Y-84052871D01*
X100399858Y-84042309D01*
X100467244Y-84023612D01*
X100531040Y-83996535D01*
X100592098Y-83960833D01*
X100632072Y-83931926D01*
X100671276Y-83897847D01*
X100707093Y-83859634D01*
X100741218Y-83815463D01*
X100775345Y-83763508D01*
X100798012Y-83729748D01*
X100827066Y-83695536D01*
X100858174Y-83668906D01*
X100892563Y-83648655D01*
X100910442Y-83640876D01*
X100956915Y-83627567D01*
X101003678Y-83623560D01*
X101049679Y-83628672D01*
X101093864Y-83642723D01*
X101135183Y-83665530D01*
X101172582Y-83696914D01*
X101185172Y-83710482D01*
X101212792Y-83748698D01*
X101231384Y-83789894D01*
X101241249Y-83834878D01*
X101242690Y-83884459D01*
X101240621Y-83906048D01*
X101234590Y-83934918D01*
X101224315Y-83964836D01*
X101209243Y-83996948D01*
X101188818Y-84032400D01*
X101162486Y-84072339D01*
X101129691Y-84117910D01*
X101117055Y-84134595D01*
X101051008Y-84212291D01*
X100978712Y-84282692D01*
X100900629Y-84345546D01*
X100817220Y-84400602D01*
X100728944Y-84447611D01*
X100636264Y-84486319D01*
X100539639Y-84516477D01*
X100439530Y-84537833D01*
X100336398Y-84550137D01*
X100334076Y-84550294D01*
X100312296Y-84550985D01*
X100283740Y-84550956D01*
X100250998Y-84550294D01*
X100216660Y-84549087D01*
X100183316Y-84547425D01*
X100153554Y-84545395D01*
X100129965Y-84543086D01*
X100088090Y-84537126D01*
X99994474Y-84518006D01*
X99903072Y-84491438D01*
X99815126Y-84457928D01*
X99731878Y-84417983D01*
X99654572Y-84372108D01*
X99584450Y-84320811D01*
X99565979Y-84305052D01*
X99533358Y-84274432D01*
X99499905Y-84240076D01*
X99467802Y-84204349D01*
X99439229Y-84169622D01*
X99416366Y-84138263D01*
X99407892Y-84125311D01*
X99364589Y-84049077D01*
X99330559Y-83969863D01*
X99305790Y-83887625D01*
X99290271Y-83802322D01*
X99283992Y-83713909D01*
X99286942Y-83622345D01*
X99287252Y-83618614D01*
X99290281Y-83587937D01*
X99294093Y-83556550D01*
X99298233Y-83527936D01*
X99302244Y-83505577D01*
X99309555Y-83473945D01*
X99333778Y-83396182D01*
X99365911Y-83323461D01*
X99406079Y-83255648D01*
X99454410Y-83192605D01*
X99511028Y-83134198D01*
X99576060Y-83080289D01*
X99649633Y-83030745D01*
X99731871Y-82985427D01*
X99822902Y-82944202D01*
X99853137Y-82932144D01*
X99899742Y-82914925D01*
X99950165Y-82897914D01*
X100005855Y-82880649D01*
X100068263Y-82862667D01*
X100138837Y-82843508D01*
X100182293Y-82831956D01*
X100249701Y-82813794D01*
X100308777Y-82797467D01*
X100360249Y-82782692D01*
X100404847Y-82769185D01*
X100443298Y-82756665D01*
X100476332Y-82744849D01*
X100504677Y-82733455D01*
X100529061Y-82722200D01*
X100550214Y-82710802D01*
X100568864Y-82698979D01*
X100585740Y-82686447D01*
X100601570Y-82672926D01*
X100617082Y-82658131D01*
X100639521Y-82633688D01*
X100671165Y-82588580D01*
X100693766Y-82539819D01*
X100707347Y-82487343D01*
X100711936Y-82431091D01*
X100711901Y-82425557D01*
X100706680Y-82372663D01*
X100692592Y-82323834D01*
X100669625Y-82279036D01*
X100637765Y-82238233D01*
X100601270Y-82204610D01*
X100553373Y-82171561D01*
X100498891Y-82143535D01*
X100439037Y-82121059D01*
X100375023Y-82104659D01*
X100308061Y-82094864D01*
X100304016Y-82094503D01*
X100234141Y-82093109D01*
X100166970Y-82101050D01*
X100102658Y-82118247D01*
X100041361Y-82144622D01*
X99983233Y-82180093D01*
X99928429Y-82224582D01*
X99877104Y-82278009D01*
X99829414Y-82340295D01*
X99818912Y-82355219D01*
X99792784Y-82388642D01*
X99767630Y-82414755D01*
X99741968Y-82434985D01*
X99714312Y-82450756D01*
X99707172Y-82454103D01*
X99674953Y-82466403D01*
X99643197Y-82472993D01*
X99607130Y-82474950D01*
X99602167Y-82474910D01*
X99554562Y-82469969D01*
X99511301Y-82456510D01*
X99471526Y-82434176D01*
X99434380Y-82402607D01*
X99404824Y-82366943D01*
X99381950Y-82325885D01*
X99367271Y-82281976D01*
X99361096Y-82236556D01*
X99363732Y-82190964D01*
X99375488Y-82146542D01*
X99380661Y-82134374D01*
X99395722Y-82105939D01*
X99416257Y-82073016D01*
X99441187Y-82037069D01*
X99469430Y-81999563D01*
X99499905Y-81961960D01*
X99531532Y-81925725D01*
X99563228Y-81892322D01*
X99617521Y-81841419D01*
X99694585Y-81780317D01*
X99775935Y-81727936D01*
X99861420Y-81684351D01*
X99950885Y-81649637D01*
X100044179Y-81623871D01*
X100141149Y-81607127D01*
X100156835Y-81605504D01*
X100193226Y-81603284D01*
X100235048Y-81602276D01*
X100279497Y-81602452D01*
G37*
G36*
X98610549Y-81485441D02*
G01*
X98616391Y-81486747D01*
X98658320Y-81501518D01*
X98697526Y-81524436D01*
X98732625Y-81554145D01*
X98762231Y-81589287D01*
X98784960Y-81628506D01*
X98799426Y-81670446D01*
X98799933Y-81677030D01*
X98800440Y-81693013D01*
X98800919Y-81717802D01*
X98801371Y-81750906D01*
X98801795Y-81791839D01*
X98802192Y-81840112D01*
X98802561Y-81895238D01*
X98802902Y-81956728D01*
X98803216Y-82024093D01*
X98803502Y-82096847D01*
X98803760Y-82174500D01*
X98803991Y-82256566D01*
X98804195Y-82342555D01*
X98804371Y-82431979D01*
X98804519Y-82524352D01*
X98804640Y-82619183D01*
X98804734Y-82715986D01*
X98804800Y-82814273D01*
X98804838Y-82913554D01*
X98804850Y-83013343D01*
X98804834Y-83113151D01*
X98804790Y-83212490D01*
X98804719Y-83310871D01*
X98804621Y-83407808D01*
X98804495Y-83502811D01*
X98804342Y-83595393D01*
X98804162Y-83685065D01*
X98803954Y-83771340D01*
X98803719Y-83853730D01*
X98803457Y-83931745D01*
X98803168Y-84004899D01*
X98802851Y-84072704D01*
X98802507Y-84134670D01*
X98802136Y-84190310D01*
X98801738Y-84239136D01*
X98801313Y-84280660D01*
X98800860Y-84314394D01*
X98800381Y-84339849D01*
X98799874Y-84356538D01*
X98799340Y-84363973D01*
X98786462Y-84405948D01*
X98765135Y-84447054D01*
X98736994Y-84483849D01*
X98703238Y-84515023D01*
X98665071Y-84539267D01*
X98623693Y-84555274D01*
X98618577Y-84556540D01*
X98589876Y-84560909D01*
X98557677Y-84562363D01*
X98526236Y-84560864D01*
X98499813Y-84556374D01*
X98485347Y-84552026D01*
X98441524Y-84532419D01*
X98402127Y-84504881D01*
X98368225Y-84470440D01*
X98340884Y-84430119D01*
X98321175Y-84384945D01*
X98320454Y-84381948D01*
X98319454Y-84374486D01*
X98318542Y-84363032D01*
X98317712Y-84347106D01*
X98316955Y-84326226D01*
X98316263Y-84299912D01*
X98315628Y-84267685D01*
X98315042Y-84229064D01*
X98314498Y-84183568D01*
X98313987Y-84130718D01*
X98313501Y-84070032D01*
X98313033Y-84001032D01*
X98312575Y-83923236D01*
X98312118Y-83836164D01*
X98311757Y-83764138D01*
X98311368Y-83688807D01*
X98311002Y-83622175D01*
X98310644Y-83563673D01*
X98310282Y-83512732D01*
X98309903Y-83468785D01*
X98309492Y-83431262D01*
X98309038Y-83399594D01*
X98308526Y-83373212D01*
X98307943Y-83351549D01*
X98307277Y-83334034D01*
X98306513Y-83320100D01*
X98305639Y-83309177D01*
X98304641Y-83300698D01*
X98303507Y-83294092D01*
X98302222Y-83288792D01*
X98300774Y-83284228D01*
X98299149Y-83279832D01*
X98291212Y-83260043D01*
X98272020Y-83220483D01*
X98249881Y-83186843D01*
X98222878Y-83156454D01*
X98189093Y-83126648D01*
X98187677Y-83125516D01*
X98154896Y-83102141D01*
X98117012Y-83079486D01*
X98077032Y-83059091D01*
X98037960Y-83042495D01*
X98002803Y-83031237D01*
X97973392Y-83024854D01*
X97931487Y-83018479D01*
X97889313Y-83014757D01*
X97850008Y-83013941D01*
X97816706Y-83016283D01*
X97790668Y-83021089D01*
X97753112Y-83033658D01*
X97720662Y-83052610D01*
X97692922Y-83078445D01*
X97669491Y-83111659D01*
X97649972Y-83152751D01*
X97633965Y-83202218D01*
X97621073Y-83260557D01*
X97619964Y-83267122D01*
X97618722Y-83276129D01*
X97617611Y-83286680D01*
X97616619Y-83299362D01*
X97615733Y-83314763D01*
X97614942Y-83333467D01*
X97614236Y-83356063D01*
X97613601Y-83383136D01*
X97613026Y-83415272D01*
X97612500Y-83453059D01*
X97612011Y-83497084D01*
X97611547Y-83547931D01*
X97611097Y-83606189D01*
X97610648Y-83672443D01*
X97610190Y-83747280D01*
X97609710Y-83831286D01*
X97609376Y-83890610D01*
X97608927Y-83967317D01*
X97608499Y-84035238D01*
X97608080Y-84094941D01*
X97607658Y-84146996D01*
X97607220Y-84191974D01*
X97606755Y-84230443D01*
X97606250Y-84262974D01*
X97605692Y-84290136D01*
X97605071Y-84312498D01*
X97604373Y-84330631D01*
X97603586Y-84345103D01*
X97602698Y-84356486D01*
X97601697Y-84365348D01*
X97600571Y-84372258D01*
X97599307Y-84377788D01*
X97597893Y-84382506D01*
X97592348Y-84398435D01*
X97582768Y-84421082D01*
X97571191Y-84441285D01*
X97555231Y-84463579D01*
X97534206Y-84486672D01*
X97501081Y-84512599D01*
X97462794Y-84533594D01*
X97421764Y-84548123D01*
X97420902Y-84548341D01*
X97398881Y-84551725D01*
X97371259Y-84553052D01*
X97341774Y-84552398D01*
X97314163Y-84549840D01*
X97292162Y-84545455D01*
X97286163Y-84543621D01*
X97240801Y-84524421D01*
X97201617Y-84497726D01*
X97168839Y-84463767D01*
X97142695Y-84422775D01*
X97123414Y-84374980D01*
X97123367Y-84374827D01*
X97122031Y-84370097D01*
X97120835Y-84364718D01*
X97119772Y-84358155D01*
X97118833Y-84349871D01*
X97118012Y-84339330D01*
X97117299Y-84325998D01*
X97116688Y-84309337D01*
X97116170Y-84288814D01*
X97115738Y-84263891D01*
X97115385Y-84234034D01*
X97115102Y-84198706D01*
X97114882Y-84157372D01*
X97114717Y-84109495D01*
X97114599Y-84054542D01*
X97114521Y-83991975D01*
X97114475Y-83921259D01*
X97114453Y-83841858D01*
X97114447Y-83753237D01*
X97114466Y-83666456D01*
X97114534Y-83580927D01*
X97114654Y-83504279D01*
X97114831Y-83436055D01*
X97115071Y-83375797D01*
X97115376Y-83323050D01*
X97115753Y-83277356D01*
X97116205Y-83238259D01*
X97116737Y-83205303D01*
X97117354Y-83178031D01*
X97118059Y-83155987D01*
X97118858Y-83138713D01*
X97119755Y-83125754D01*
X97120755Y-83116652D01*
X97123452Y-83099345D01*
X97141148Y-83021503D01*
X97167213Y-82948489D01*
X97201554Y-82880494D01*
X97244079Y-82817706D01*
X97294694Y-82760314D01*
X97307058Y-82748268D01*
X97360047Y-82703457D01*
X97416956Y-82666166D01*
X97478842Y-82635858D01*
X97546759Y-82611996D01*
X97621764Y-82594045D01*
X97626180Y-82593247D01*
X97654511Y-82589669D01*
X97689416Y-82587163D01*
X97728266Y-82585756D01*
X97768432Y-82585471D01*
X97807286Y-82586336D01*
X97842200Y-82588376D01*
X97870545Y-82591617D01*
X97902057Y-82597160D01*
X97994048Y-82619402D01*
X98083479Y-82650004D01*
X98168817Y-82688389D01*
X98248528Y-82733979D01*
X98266401Y-82745139D01*
X98281817Y-82753557D01*
X98292459Y-82757194D01*
X98300010Y-82756585D01*
X98306155Y-82752262D01*
X98307073Y-82749408D01*
X98307958Y-82741865D01*
X98308741Y-82729265D01*
X98309427Y-82711183D01*
X98310020Y-82687190D01*
X98310525Y-82656860D01*
X98310947Y-82619765D01*
X98311291Y-82575479D01*
X98311562Y-82523572D01*
X98311765Y-82463619D01*
X98311903Y-82395192D01*
X98311983Y-82317863D01*
X98312008Y-82231206D01*
X98312018Y-82184885D01*
X98312109Y-82093628D01*
X98312294Y-82011936D01*
X98312575Y-81939677D01*
X98312953Y-81876722D01*
X98313430Y-81822939D01*
X98314006Y-81778199D01*
X98314683Y-81742372D01*
X98315462Y-81715326D01*
X98316345Y-81696932D01*
X98317333Y-81687060D01*
X98319052Y-81678683D01*
X98333231Y-81635686D01*
X98355416Y-81594393D01*
X98384236Y-81557460D01*
X98390962Y-81550526D01*
X98428533Y-81519706D01*
X98470157Y-81497508D01*
X98514955Y-81484211D01*
X98562045Y-81480095D01*
X98610549Y-81485441D01*
G37*
M02*
