M48
; DRILL file {KiCad 7.0.5} date Fri Feb  6 08:35:36 2026
; FORMAT={-:-/ absolute / metric / decimal}
; #@! TF.CreationDate,2026-02-06T08:35:36+09:00
; #@! TF.GenerationSoftware,Kicad,Pcbnew,7.0.5
; #@! TF.FileFunction,Plated,1,2,PTH
FMAT,2
METRIC
; #@! TA.AperFunction,Plated,PTH,ViaDrill
T1C0.400
; #@! TA.AperFunction,Plated,PTH,ComponentDrill
T2C0.800
; #@! TA.AperFunction,Plated,PTH,ComponentDrill
T3C0.850
; #@! TA.AperFunction,Plated,PTH,ComponentDrill
T4C0.900
; #@! TA.AperFunction,Plated,PTH,ComponentDrill
T5C1.000
; #@! TA.AperFunction,Plated,PTH,ComponentDrill
T6C1.300
; #@! TA.AperFunction,Plated,PTH,ComponentDrill
T7C2.200
%
G90
G05
T1
X27.81Y-59.38
X27.81Y-79.78
X27.91Y-71.18
X28.41Y-87.28
X28.51Y-51.38
X33.21Y-64.88
X46.31Y-73.18
X46.71Y-63.98
X47.61Y-51.28
X49.61Y-69.28
X51.81Y-64.28
X53.11Y-87.78
X59.51Y-69.28
X64.71Y-73.28
X65.41Y-63.58
X67.61Y-51.28
X68.31Y-63.08
X69.01Y-69.28
X71.21Y-87.78
X77.61Y-69.18
X83.81Y-73.38
X84.61Y-62.98
X87.21Y-87.78
X87.61Y-51.38
X95.41Y-68.98
X97.21Y-61.78
X99.61Y-51.28
X100.2Y-67.015
X100.71Y-73.88
X102.21Y-67.08
X102.71Y-87.78
X103.51Y-50.98
X105.21Y-65.78
X105.41Y-60.78
X105.51Y-76.48
X108.6Y-82.015
X108.924Y-78.908
X109.77Y-65.41
X109.81Y-51.08
X109.81Y-76.28
X110.0Y-85.415
X110.41Y-56.78
X114.8Y-74.815
X115.96Y-87.931
X119.9Y-76.715
X120.51Y-50.68
X120.8Y-75.415
X121.25Y-62.115
X123.11Y-80.68
X123.9Y-62.965
X125.01Y-54.18
X126.2Y-85.815
X126.35Y-64.015
X128.37Y-87.92
X128.51Y-75.38
X128.9Y-62.215
X129.21Y-63.78
X133.31Y-78.08
X134.3Y-63.615
X134.72Y-62.165
X135.51Y-54.08
X135.61Y-50.58
X138.61Y-75.18
X139.01Y-87.68
X139.2Y-65.715
X141.31Y-53.18
X141.4Y-64.915
X141.51Y-79.68
X144.21Y-54.38
X144.21Y-67.38
X144.51Y-87.68
X144.71Y-76.38
X144.91Y-50.58
X149.11Y-55.48
X149.21Y-59.08
X149.21Y-63.48
X149.21Y-67.98
X149.21Y-72.38
X149.21Y-76.98
X149.21Y-83.08
T2
X103.31Y-56.78
X103.81Y-59.48
X103.81Y-68.48
X103.81Y-72.315
X103.81Y-81.315
X106.81Y-59.48
X106.81Y-68.48
X106.81Y-72.315
X106.81Y-81.315
X110.11Y-74.28
X111.81Y-86.98
X112.31Y-56.78
X114.2Y-52.68
X119.11Y-74.28
X120.81Y-86.98
X123.2Y-52.68
X124.22Y-86.98
X126.0Y-74.315
X133.22Y-86.98
X134.72Y-59.22
X134.72Y-68.22
X135.0Y-74.315
X138.86Y-59.22
X138.86Y-68.22
T3
X114.948Y-56.389
X114.948Y-71.609
X117.488Y-56.389
X117.488Y-71.609
X120.028Y-56.389
X120.028Y-71.609
X122.568Y-56.389
X122.568Y-71.609
X125.108Y-56.389
X125.108Y-71.609
X127.648Y-56.389
X127.648Y-71.609
X130.188Y-56.389
X130.188Y-71.609
X132.728Y-56.389
X132.728Y-71.609
X135.268Y-56.389
X135.268Y-71.609
X137.808Y-56.389
X137.808Y-71.609
X140.348Y-56.389
X140.348Y-71.609
X142.888Y-56.389
X142.888Y-71.609
T4
X110.66Y-78.215
X110.66Y-83.215
X113.2Y-78.215
X113.2Y-83.215
X115.86Y-78.215
X115.86Y-83.215
X118.4Y-78.215
X118.4Y-83.215
X121.06Y-78.215
X121.06Y-83.215
X123.6Y-78.215
X123.6Y-83.215
X126.26Y-78.215
X126.26Y-83.215
X128.8Y-78.215
X128.8Y-83.215
X131.46Y-83.215
X134.0Y-83.215
T5
X29.26Y-69.23
X35.26Y-69.23
X38.295Y-69.23
X44.295Y-69.23
X47.331Y-69.23
X53.331Y-69.23
X56.367Y-69.23
X62.367Y-69.23
X65.402Y-69.23
X71.402Y-69.23
X74.438Y-69.23
X80.438Y-69.23
X83.474Y-69.23
X89.474Y-69.23
X92.51Y-69.23
X98.51Y-69.23
X102.01Y-52.68
X109.87Y-60.16
X109.87Y-67.78
X111.35Y-52.715
X112.41Y-60.16
X112.41Y-67.78
X114.95Y-60.16
X114.95Y-67.78
X117.49Y-60.16
X117.49Y-67.78
X120.03Y-60.16
X120.03Y-67.78
X122.57Y-60.16
X122.57Y-67.78
X125.11Y-60.16
X125.11Y-67.78
X126.49Y-51.98
X127.65Y-60.16
X127.65Y-67.78
X129.03Y-51.98
X130.19Y-60.16
X130.19Y-67.78
X131.57Y-51.98
X134.11Y-51.98
X136.9Y-86.815
X139.0Y-79.615
X144.0Y-79.615
X147.7Y-57.415
X148.31Y-74.48
T6
X137.11Y-51.68
X143.61Y-51.68
T7
X106.61Y-52.28
X106.61Y-86.18
X147.61Y-52.28
X147.61Y-86.18
T2
G00X32.525Y-57.165
M15
G01X32.925Y-57.165
M16
G05
G00X32.525Y-76.215
M15
G01X32.925Y-76.215
M16
G05
G00X38.875Y-54.625
M15
G01X39.275Y-54.625
M16
G05
G00X38.875Y-73.675
M15
G01X39.275Y-73.675
M16
G05
G00X51.575Y-57.165
M15
G01X51.975Y-57.165
M16
G05
G00X51.575Y-76.215
M15
G01X51.975Y-76.215
M16
G05
G00X57.925Y-54.625
M15
G01X58.325Y-54.625
M16
G05
G00X57.925Y-73.675
M15
G01X58.325Y-73.675
M16
G05
G00X70.625Y-57.165
M15
G01X71.025Y-57.165
M16
G05
G00X70.625Y-76.215
M15
G01X71.025Y-76.215
M16
G05
G00X76.975Y-54.625
M15
G01X77.375Y-54.625
M16
G05
G00X76.975Y-73.675
M15
G01X77.375Y-73.675
M16
G05
G00X89.675Y-57.165
M15
G01X90.075Y-57.165
M16
G05
G00X89.675Y-76.215
M15
G01X90.075Y-76.215
M16
G05
G00X96.025Y-54.625
M15
G01X96.425Y-54.625
M16
G05
G00X96.025Y-73.675
M15
G01X96.425Y-73.675
M16
G05
T0
M30
